<?xml version="1.0" encoding="utf-8"?>
<!-- Generator: Adobe Illustrator 21.1.0, SVG Export Plug-In . SVG Version: 6.00 Build 0)  -->
<svg version="1.1" baseProfile="basic" xmlns="http://www.w3.org/2000/svg" xmlns:xlink="http://www.w3.org/1999/xlink" x="0px"
	 y="0px" viewBox="0 0 1194 228" xml:space="preserve">
<style type="text/css">
	.st0{display:none;}
	.st1{display:inline;fill:#E2001A;stroke:#000000;stroke-miterlimit:10;}
	.st2{fill:#FFFFFF;}
</style>
<g id="Layer_1" class="st0">
	<rect x="-61" y="-42" class="st1" width="1281" height="322"/>
</g>
<g id="Layer_2" class="st0">
	
		<image style="display:inline;overflow:visible;" width="194" height="89" xlink:href="logo.png"  transform="matrix(5.0155 0 0 5.0155 -20 -368)">
	</image>
</g>
<g id="Layer_3">
	<g>
		<path class="st2" d="M282.3,33.3c0,0-161.9-31.2-161.9,71.3c0,80.6-58.4,100.6-58.4,100.6s130.3,0,134.3-92.3
			C196.3,112.9,192.8,33.3,282.3,33.3z"/>
		<path class="st2" d="M56.4,28.8c0,0-29.8,0.8-8.5,16.8c0,0,73,62.8,217.5,131.6L164,115.5l183.5,89.7c0,0-347.8-176.4-273.4-176.4
			H56.4z"/>
		<g>
			<rect x="390.5" y="54.7" class="st2" width="40.1" height="124.7"/>
			
				<rect x="390.5" y="54.7" transform="matrix(6.123234e-17 -1 1 6.123234e-17 293.555 527.5551)" class="st2" width="40.1" height="124.7"/>
		</g>
	</g>
	<g>
		<path class="st2" d="M625.5,40.7h-14.2v66h-13.7v-66h-14.1V29.8h42V40.7z"/>
		<path class="st2" d="M664.6,106.7l-13.1-31c-1.9,0-3.8,0-4.4,0v31h-13.6V29.8h23c13.2,0,19.4,9.7,19.4,22
			c0,11.4-4.9,18.8-11.5,22.1l14.5,32.8H664.6z M647.2,64.1h4.4c8.9,0,11.3-1.1,11.3-12.3c0-6.2-1.4-11-6.8-11h-8.9V64.1z"/>
		<path class="st2" d="M699.2,40.8v18.9h14v11h-14v25h21v11h-34.7V29.8h33.2v11H699.2z"/>
		<path class="st2" d="M769.4,29.8v76.9h-13.7l-13.5-44h-0.2v44h-13.7V29.8h14.5l12.7,42.6h0.2V29.8H769.4z"/>
		<path class="st2" d="M793.7,106.7h-13.7V29.8h13.7V106.7z"/>
		<path class="st2" d="M845.4,29.8v76.9h-13.7l-13.5-44h-0.2v44h-13.7V29.8h14.5l12.7,42.6h0.2V29.8H845.4z"/>
		<path class="st2" d="M895.8,45.9v44.4c0,7.9-6.2,17.4-19.9,17.4c-15.2,0-20.5-9.4-20.5-17.4V45.9c0-7.9,5.4-17.1,20.5-17.1
			C889.7,28.8,895.8,38,895.8,45.9z M882.1,46c0-2.3-2.2-6.5-6.2-6.5c-4.8,0-6.8,4.2-6.8,6.3v44.3c0,2.5,2,6.6,6.8,6.6
			c4,0,6.2-4.3,6.2-6.6V46z"/>
		<path class="st2" d="M957.2,106.7l-13.1-31c-1.9,0-3.8,0-4.4,0v31h-13.6V29.8h23c13.2,0,19.4,9.7,19.4,22
			c0,11.4-4.9,18.8-11.5,22.1l14.5,32.8H957.2z M939.8,64.1h4.4c8.9,0,11.3-1.1,11.3-12.3c0-6.2-1.4-11-6.8-11h-8.9V64.1z"/>
		<path class="st2" d="M1017.4,45.9v44.4c0,7.9-6.2,17.4-19.9,17.4c-15.2,0-20.5-9.4-20.5-17.4V45.9c0-7.9,5.4-17.1,20.5-17.1
			C1011.3,28.8,1017.4,38,1017.4,45.9z M1003.7,46c0-2.3-2.2-6.5-6.2-6.5c-4.8,0-6.8,4.2-6.8,6.3v44.3c0,2.5,2,6.6,6.8,6.6
			c4,0,6.2-4.3,6.2-6.6V46z"/>
		<path class="st2" d="M1052.2,51.3v-3.2c0-5.4-2.9-8.3-6.2-8.3c-3.5,0-6.2,2.5-6.2,6c0,3.3,0.7,5.8,3.8,9.4l13.7,15.7
			c5.5,6.3,8.9,10.4,8.9,19.6c0,11.1-9.3,17.2-20.3,17.2c-11.1,0-20-6.3-20-17.2v-8h13.8v7.1c0,4.7,2.6,7,6.2,7c3.4,0,6.2-2.5,6.2-7
			c0-4.1-1.6-7.1-4.5-10.4l-11.4-11.8c-7.2-8.6-10.3-11-10.3-21.5c0-10.4,8.3-17.1,20.1-17.1c11.6,0,19.9,6.9,19.9,17.1v5.4H1052.2z
			"/>
		<path class="st2" d="M1099.8,51.3v-3.2c0-5.4-2.9-8.3-6.2-8.3c-3.5,0-6.2,2.5-6.2,6c0,3.3,0.7,5.8,3.8,9.4l13.7,15.7
			c5.5,6.3,8.9,10.4,8.9,19.6c0,11.1-9.3,17.2-20.3,17.2c-11.1,0-20-6.3-20-17.2v-8h13.8v7.1c0,4.7,2.6,7,6.2,7c3.4,0,6.2-2.5,6.2-7
			c0-4.1-1.6-7.1-4.5-10.4l-11.4-11.8c-7.2-8.6-10.3-11-10.3-21.5c0-10.4,8.3-17.1,20.1-17.1c11.6,0,19.9,6.9,19.9,17.1v5.4H1099.8z
			"/>
		<path class="st2" d="M1162.9,45.9v44.4c0,7.9-6.2,17.4-19.9,17.4c-15.2,0-20.5-9.4-20.5-17.4V45.9c0-7.9,5.4-17.1,20.5-17.1
			C1156.8,28.8,1162.9,38,1162.9,45.9z M1149.2,46c0-2.3-2.2-6.5-6.2-6.5c-4.8,0-6.8,4.2-6.8,6.3v44.3c0,2.5,2,6.6,6.8,6.6
			c4,0,6.2-4.3,6.2-6.6V46z"/>
		<path class="st2" d="M628,150.3v33c0,11.8-5.3,22-17.1,22h-24.8v-76.9h24.8c7.8,0,14.3,5.4,16,12.7C627.6,144,628,147.1,628,150.3
			z M608.1,194.2c5.5,0,6.9-4.8,6.9-11v-33c0-6.2-1.4-11-6.9-11h-8.2v54.9H608.1z"/>
		<path class="st2" d="M651.8,139.3v18.9h14v11h-14v25h21v11H638v-76.9h33.2v11H651.8z"/>
		<path class="st2" d="M712.5,194.2v11h-31.7v-76.9h13.7v65.9H712.5z"/>
		<path class="st2" d="M781.7,183.2c0,12.4-7.3,22-20.4,22h-20.4v-76.9h17.8c12.7,0,20,7.1,20,19.3c0,6.5-3,13.7-8.7,16
			C777.1,166.8,781.7,172.6,781.7,183.2z M754.6,157.5h0.7c9.8,0,11.4-2.1,11.4-9.4c0-5.5-2.1-8.8-6.9-8.8h-5.2V157.5z M759.2,194.2
			c5.5,0,9.4-4.8,9.4-11c0-8.2-2.5-14.1-11.3-14.1h-2.7v25H759.2z"/>
		<path class="st2" d="M803.4,139.3v18.9h14v11h-14v25h21v11h-34.7v-76.9h33.2v11H803.4z"/>
		<path class="st2" d="M863.5,205.2l-13.1-31c-1.9,0-3.8,0-4.4,0v31h-13.6v-76.9h23c13.2,0,19.4,9.7,19.4,22
			c0,11.4-4.9,18.8-11.5,22.1l14.5,32.8H863.5z M846.1,162.6h4.4c8.9,0,11.3-1.1,11.3-12.3c0-6.2-1.4-11-6.8-11h-8.9V162.6z"/>
		<path class="st2" d="M925.6,128.3v76.9h-13.7l-13.5-44h-0.2v44h-13.7v-76.9h14.5l12.7,42.6h0.2v-42.6H925.6z"/>
		<path class="st2" d="M949.9,205.2h-13.7v-76.9h13.7V205.2z"/>
		<path class="st2" d="M1001.6,128.3v76.9h-13.7l-13.5-44h-0.2v44h-13.7v-76.9h14.5l12.7,42.6h0.2v-42.6H1001.6z"/>
		<path class="st2" d="M1038.5,187.3h-13.3l-2.6,17.9h-13l15.8-76.9h13.7l15.8,76.9h-13.7L1038.5,187.3z M1036.3,176.2l-4.2-27.6
			h-0.3l-4.3,27.6H1036.3z"/>
	</g>
</g>
</svg>
