<?xml version="1.0" encoding="utf-8"?>
<!-- Generator: Adobe Illustrator 21.1.0, SVG Export Plug-In . SVG Version: 6.00 Build 0)  -->
<svg version="1.1" id="Layer_1" xmlns="http://www.w3.org/2000/svg" xmlns:xlink="http://www.w3.org/1999/xlink" x="0px" y="0px"
	 viewBox="0 0 1307 405" style="enable-background:new 0 0 1307 405;" xml:space="preserve">
<style type="text/css">
	.st0{fill:#FFFFFF;}
	.st1{fill:#F2E2AE;}
	.st2{fill:#AFA181;}
	.st3{fill:#EDE1CD;}
	.st4{fill:#BFC09E;}
	.st5{fill:#D2C3AF;}
	.st6{fill:#E4CB81;}
	.st7{fill:#BEBF9E;}
	.st8{fill:#9F3C3C;}
	.st9{fill:#ECE1CC;}
	.st10{fill:#B4553A;}
	.st11{fill:#E3D4B6;}
	.st12{fill:#883F2E;}
	.st13{fill:#2A3740;}
	.st14{fill:#587983;}
	.st15{fill:#E4CC83;}
	.st16{fill:#4A6B76;}
	.st17{opacity:0.77;}
	.st18{fill:#E18980;}
	.st19{fill:#9D4141;}
	.st20{opacity:0.86;}
	.st21{fill:#6C8289;}
	.st22{fill:#59727C;}
</style>
<g>
	<g>
		<path class="st0" d="M784.6,140.7c0,5.1-0.2,8.8-0.7,11c-0.5,2.2-1.6,4.3-3.5,6.4c-1.8,1.9-3.9,3.8-6.4,5.7
			c-2.5,1.9-5.5,4.1-8.8,6.4c7.8,2.2,15.9,3.3,24.4,3.3c8.8,0,15.4-0.6,19.8-1.9c4.4-1.3,8.9-3.3,13.3-6h0.2
			c2.3-1.3,4.1-2.9,5.3-4.9c1.2-2,2.3-4.4,3.5-7.4c0.8-2.1,1.5-3.7,2.2-4.7c0.6-1.1,1.4-1.8,2.4-2.1l7.4-2.3
			c1.2-0.4,2.1-0.5,2.8-0.5c1.2,0,1.8,0.5,1.8,1.4c0,0.6-0.7,1.9-2.1,4c-1.4,2.1-2.7,3.9-3.9,5.3c-7.7,9.9-17.2,17.6-28.5,22.9
			c-11.3,5.3-23.7,8-37.2,8c-9,0-17.4-1.7-25.2-5.1c-7.8-3.4-15.2-8-22.3-13.8c-8.2-6.8-14.5-14.6-19.1-23.5
			c-4.6-8.9-6.8-18.9-6.8-30c0-10.5,1.8-20.5,5.5-29.9c3.7-9.4,9-17.7,15.9-24.8c7-7.1,15.2-12.7,24.8-16.7c9.6-4,20-6,31.4-6
			c6.5,0,13.2,0.9,19.9,2.8c6.7,1.9,13.1,4.3,19.2,7.4c6.1,3,11.4,6.3,16,9.8c4.6,3.5,8.1,6.8,10.4,10l0.5,0.5
			c0.8,1.1,1.5,2.1,2.1,3.1c0.6,1,0.9,1.9,0.9,2.7c0,1.2-0.6,2.1-1.9,2.8l-5.8,3c-0.7,0.4-1.6,0.7-2.6,1c-1.1,0.3-1.8,0.4-2.3,0.4
			c-1.2-0.1-2.2-0.5-3-1.2c-0.8-0.7-1.8-1.9-3-3.5l-1.2-1.6c-3.3-4.3-7-8.4-11.3-12.2c-4.3-3.8-8.8-7.1-13.6-9.9
			c-3.2,1.5-6.3,3.2-9.4,5c-3.1,1.8-5.8,3.7-8,5.7c-0.9,0.8-1.7,2.1-2.2,3.9c-0.5,1.8-0.8,4.2-0.8,7.4V140.7z M753.4,46.7
			c-6.5,3.5-12.4,8.4-17.6,14.5c-5.2,6.2-9.3,13.3-12.3,21.4c-3,8.1-4.5,16.5-4.5,25.4c0,13.4,3.4,25.5,10.2,36.1
			c6.8,10.6,16.4,18.5,28.7,23.5c2.6-0.8,4.7-1.8,6.3-3c3.3-2.2,4.9-6.7,4.9-13.5V76.9c0-1.1-0.9-2-2.6-2.8c-1.1-0.5-1.8-1-2.4-1.5
			c-0.5-0.5-0.8-1.3-0.8-2.4c0-0.8,0.6-1.7,1.8-2.5c1.2-0.9,2.9-2.1,5.3-3.6l1.1-0.7c2-1.2,4.2-2.5,6.7-3.9c2.5-1.4,5.5-3,9-4.9
			c6.5-3.3,10.7-5.5,12.6-6.8c-9-4.2-17.8-6.3-26.5-6.3C766.6,41.5,759.9,43.2,753.4,46.7z"/>
		<path class="st0" d="M776.3,185.8c-9,0-17.6-1.7-25.5-5.1c-7.9-3.4-15.4-8.1-22.4-13.9c-8.2-6.8-14.7-14.8-19.3-23.7
			c-4.6-8.9-6.9-19.1-6.9-30.3c0-10.5,1.9-20.7,5.6-30.1c3.7-9.4,9.1-17.9,16.1-25c7-7.2,15.4-12.8,25-16.9c9.6-4,20.3-6.1,31.6-6.1
			c6.6,0,13.3,1,20.1,2.8c6.7,1.9,13.2,4.4,19.3,7.4c6.1,3,11.5,6.4,16.1,9.9c4.6,3.5,8.2,6.9,10.5,10.1l0.5,0.6
			c0.8,1.1,1.5,2.1,2.1,3.1c0.6,1.1,1,2.1,1,3c0,1.4-0.8,2.5-2.3,3.4l-5.8,3c-0.7,0.4-1.7,0.7-2.8,1c-1.1,0.3-1.9,0.5-2.4,0.5
			l-0.1,0c-1.3-0.1-2.4-0.6-3.3-1.4c-0.9-0.7-1.9-1.9-3.1-3.6l-1.2-1.6c-3.2-4.3-7-8.3-11.2-12.1c-4.1-3.7-8.6-6.9-13.2-9.7
			c-3,1.5-6.1,3.1-9,4.8c-3.1,1.8-5.7,3.7-7.9,5.6c-0.8,0.7-1.5,1.9-2,3.6c-0.5,1.7-0.8,4.1-0.8,7.2v68.3c0,5.2-0.2,8.9-0.7,11.1
			c-0.5,2.3-1.7,4.5-3.7,6.7c-1.8,1.9-4,3.8-6.5,5.8c-2.2,1.7-4.8,3.6-7.8,5.6c7.3,2,15,2.9,22.9,2.9c8.7,0,15.3-0.6,19.6-1.9
			c4.4-1.3,8.8-3.2,13.2-5.9l0.2-0.1h0.2c2.2-1.2,3.8-2.8,4.9-4.6c1.1-2,2.3-4.4,3.5-7.3c0.8-2.1,1.6-3.7,2.2-4.8
			c0.7-1.2,1.6-2,2.7-2.4l0,0l7.4-2.3c1.2-0.4,2.2-0.6,3-0.6c2.2,0,2.4,1.4,2.4,2c0,0.5-0.2,1.4-2.2,4.4c-1.4,2.1-2.7,3.9-3.9,5.3
			c-7.7,10-17.4,17.7-28.7,23C802.5,183.1,789.9,185.8,776.3,185.8z M780.5,36c-11.2,0-21.7,2-31.1,6c-9.5,4-17.7,9.6-24.6,16.6
			c-6.9,7-12.2,15.3-15.8,24.6c-3.6,9.3-5.5,19.3-5.5,29.6c0,10.9,2.3,20.9,6.8,29.7c4.5,8.8,10.9,16.6,18.9,23.3
			c6.9,5.8,14.4,10.4,22.1,13.7c7.7,3.3,16.1,5,25,5c13.4,0,25.8-2.7,37-7.9c11.1-5.2,20.6-12.9,28.2-22.7l0,0
			c1.2-1.4,2.4-3.1,3.8-5.2c1.9-2.8,2-3.5,2-3.7c0-0.3,0-0.8-1.1-0.8c-0.6,0-1.5,0.2-2.6,0.5l-7.3,2.3c-0.8,0.3-1.5,0.9-2,1.8
			c-0.6,1-1.3,2.6-2.1,4.6c-1.2,2.9-2.4,5.4-3.5,7.5c-1.2,2.1-3.1,3.8-5.5,5.1l-0.1,0.1h-0.2c-4.4,2.7-8.9,4.7-13.3,5.9
			c-4.5,1.3-11.2,2-20,2c-8.4,0-16.7-1.1-24.5-3.4l-1.3-0.4l1.1-0.8c3.3-2.3,6.3-4.5,8.8-6.4c2.5-1.9,4.6-3.8,6.3-5.6
			c1.8-2,2.9-4.1,3.3-6.1c0.5-2.1,0.7-5.8,0.7-10.8V72.3c0-3.2,0.3-5.7,0.8-7.5c0.6-1.9,1.4-3.3,2.4-4.2c2.2-2,4.9-3.9,8.1-5.8
			c3.1-1.8,6.3-3.5,9.4-5l0.3-0.1l0.3,0.2c4.8,2.8,9.4,6.2,13.7,10c4.3,3.8,8.1,7.9,11.4,12.3l1.2,1.6c1.1,1.6,2.1,2.7,2.9,3.4
			c0.7,0.6,1.6,1,2.6,1.1c0.3,0,0.9-0.1,2.1-0.4c1-0.3,1.8-0.6,2.5-0.9l5.8-3c1.1-0.6,1.6-1.3,1.6-2.2c0-0.7-0.3-1.5-0.8-2.4
			c-0.6-1-1.3-2-2-3l-0.6-0.6c-2.3-3.1-5.8-6.4-10.3-9.9c-4.6-3.5-9.9-6.7-15.9-9.8c-6-3-12.4-5.5-19.1-7.3
			C793.6,36.9,787,36,780.5,36z M757.9,168.3l-0.2-0.1c-12.5-5.1-22.2-13-29-23.7c-6.8-10.7-10.3-22.9-10.3-36.4
			c0-8.9,1.5-17.5,4.5-25.6c3-8.1,7.2-15.3,12.4-21.6c5.2-6.2,11.2-11.2,17.8-14.7c6.6-3.5,13.4-5.3,20.3-5.3
			c8.7,0,17.7,2.1,26.7,6.4l1,0.5l-0.9,0.6c-1.9,1.3-6.2,3.6-12.7,6.9c-3.6,1.9-6.5,3.5-9,4.9c-2.4,1.4-4.7,2.6-6.7,3.8l-1,0.7
			c-2.3,1.5-4.1,2.7-5.2,3.6c-1,0.7-1.5,1.4-1.5,2c0,0.9,0.2,1.5,0.6,1.9c0.5,0.5,1.2,0.9,2.2,1.4c2,0.9,3,2.1,3,3.4v74.3
			c0,7-1.7,11.7-5.2,14c-1.7,1.2-3.9,2.2-6.5,3.1L757.9,168.3z M773.3,42.1c-6.6,0-13.3,1.7-19.7,5.2c-6.4,3.4-12.3,8.3-17.4,14.4
			c-5.1,6.1-9.2,13.2-12.2,21.2c-2.9,8-4.4,16.4-4.4,25.2c0,13.3,3.4,25.3,10.1,35.8c6.6,10.4,16.1,18.2,28.2,23.1
			c2.4-0.8,4.4-1.7,5.9-2.8c3.1-2.1,4.6-6.5,4.6-13V76.9c0-0.8-0.8-1.5-2.3-2.2c-1.1-0.5-2-1-2.5-1.6c-0.6-0.6-1-1.6-1-2.8
			c0-1,0.7-2.1,2-3.1c1.2-0.9,2.9-2.1,5.3-3.6l1.1-0.7c2.1-1.2,4.3-2.5,6.8-3.9c2.5-1.4,5.4-3,9-4.9c5.5-2.8,9.4-4.8,11.6-6.2
			C790,44,781.5,42.1,773.3,42.1z"/>
	</g>
	<g>
		<path class="st0" d="M884.3,170.5c2.1,1.2,3.2,2.5,3.2,3.9c0,0.9-0.5,2-1.6,3.2l-5.8,6.5c-0.6,0.7-1.3,1.1-2.3,1.1
			c-0.8,0-1.9-0.4-3.2-1.1l-17.2-8.9c-1.2-0.6-1.8-1.2-1.8-1.9c0-0.4,0.3-0.8,0.9-1.4l6.7-5.4V137V45c0-1.8,0.8-3.2,2.3-4.2
			l10.3-6.8c0.5-0.4,0.9-0.5,1.2-0.5c0.8,0,1.2,1.1,1.2,3.2v99.9v30.7L884.3,170.5z"/>
		<path class="st0" d="M877.8,185.6c-0.9,0-2.1-0.4-3.5-1.1l-17.2-8.9c-1.4-0.7-2.1-1.5-2.1-2.5c0-0.5,0.3-1.1,1.1-1.9l0,0l6.4-5.2
			V45c0-2,0.9-3.6,2.5-4.7l10.3-6.8c0.6-0.4,1.1-0.6,1.6-0.6c1.9,0,1.9,2.9,1.9,3.8v130.2l5.6,3.1c2.3,1.3,3.5,2.8,3.5,4.4
			c0,1.1-0.6,2.3-1.7,3.6l-5.8,6.5C879.8,185.2,878.9,185.6,877.8,185.6z M857,172.2c-0.7,0.7-0.7,0.9-0.7,0.9c0,0.5,0.8,1,1.4,1.4
			l17.2,8.9c1.2,0.6,2.2,1,2.9,1c0.7,0,1.3-0.3,1.8-0.8l0,0l5.8-6.5c0.9-1,1.4-2,1.4-2.7c0-1.1-0.9-2.3-2.8-3.3l-6.3-3.5V36.6
			c0-2-0.4-2.5-0.6-2.5c-0.1,0-0.4,0.1-0.8,0.4l0,0l-10.3,6.8c-1.3,0.9-2,2.1-2,3.7v121.6L857,172.2z"/>
	</g>
	<g>
		<path class="st0" d="M896.4,169.1c1.2-1.1,2.5-2.1,4-2.9v-44.2L895,117c-0.9-0.9-1.4-1.9-1.4-2.8c0-0.5,0.4-1.1,1.1-1.8l5.8-6
			c0.8-0.8,1.6-1.2,2.3-1.2c1.5,0,3,0.5,4.6,1.6l4.7,2.8c2.3,1.4,3.5,3.2,3.5,5.4v50.7c0.8,0.4,1.9,0.8,3.2,1.4
			c3,1.5,5.7,2.7,7.9,3.4c2.2,0.8,4.6,1.1,7.2,1.1c6,0,11.3-1.6,16.1-4.7v-44.9l-5.4-5.1c-0.9-0.9-1.4-1.9-1.4-2.8
			c0-0.5,0.4-1.1,1.1-1.8l5.8-6c0.8-0.8,1.6-1.2,2.3-1.2c1.5,0,3,0.5,4.6,1.6l4.7,2.8l1.2,0.7c1.8,1.1,3.2,2,4.4,2.9
			c1.2,0.9,1.8,1.7,1.8,2.4c0,0.8-0.3,1.6-0.9,2.5l-3,3.9v45.2l6,3.3c2.1,1.2,3.2,2.5,3.2,3.9c0,0.9-0.5,2-1.6,3.2l-5.8,6.5
			c-0.6,0.7-1.3,1.1-2.3,1.1c-0.8,0-1.9-0.4-3.2-1.1l-7.2-4c-0.8-0.5-1.7-1.4-2.7-2.9c-1-1.5-1.5-2.7-1.5-3.6v-0.4
			c-1.2,0.6-3.2,1.6-6.1,3c-4.6,2.3-8.2,4.1-11,5.2c-2.7,1.1-5.1,1.7-7.1,1.7c-2.9,0-7.1-1.1-12.6-3.3c-2.3-0.9-4.1-1.6-5.3-1.9
			c-0.8-0.2-2.5-0.7-4.9-1.4c-2.9-0.7-5-1.3-6.3-1.9c-1.3-0.6-1.9-1.3-1.9-2.3C894.6,171.2,895.2,170.2,896.4,169.1z"/>
		<path class="st0" d="M964.4,185.6c-0.9,0-2.1-0.4-3.5-1.1l-7.2-4c-0.9-0.5-1.9-1.5-2.9-3.1c-0.9-1.3-1.4-2.4-1.5-3.3
			c-1.2,0.6-3,1.5-5.3,2.6c-4.5,2.3-8.2,4.1-11,5.2c-2.8,1.1-5.3,1.7-7.3,1.7c-3,0-7.2-1.1-12.9-3.4c-2.3-0.9-4-1.6-5.2-1.9
			c-0.5-0.2-1.4-0.4-2.6-0.8l-2.2-0.6c-2.9-0.7-5.1-1.4-6.4-2c-1.5-0.7-2.3-1.7-2.3-2.9c0-1,0.6-2.1,2-3.4c1.1-1.1,2.4-2,3.8-2.8
			v-43.5l-5.2-4.9c-1.1-1.1-1.6-2.1-1.6-3.3c0-0.6,0.4-1.4,1.2-2.2l5.8-6c0.9-0.9,1.9-1.4,2.7-1.4c1.6,0,3.3,0.6,4.9,1.7l4.7,2.8
			c2.5,1.5,3.8,3.5,3.8,6v50.2c0.7,0.3,1.6,0.7,2.8,1.2l0,0c3,1.5,5.6,2.6,7.8,3.4c2.1,0.7,4.5,1.1,7,1.1c5.7,0,10.9-1.5,15.5-4.4
			v-44.2l-5.2-4.9c-1.1-1.1-1.6-2.1-1.6-3.3c0-0.6,0.4-1.4,1.2-2.2l5.8-6c0.9-0.9,1.9-1.4,2.7-1.4c1.6,0,3.3,0.6,4.9,1.7l4.7,2.8
			l1.2,0.7c1.8,1.1,3.3,2,4.4,2.9c1.4,1,2,2,2,2.9c0,1-0.3,1.9-1,2.8l0,0l-2.8,3.7v44.6l5.6,3.1c2.3,1.3,3.5,2.8,3.5,4.4
			c0,1.1-0.6,2.3-1.7,3.6l-5.8,6.5C966.4,185.2,965.5,185.6,964.4,185.6z M950.4,172v1.4c0,0.8,0.5,1.9,1.4,3.2
			c0.9,1.4,1.8,2.3,2.5,2.7l7.2,4c1.2,0.6,2.1,1,2.8,1c0.7,0,1.3-0.3,1.8-0.8l0,0l5.8-6.5c0.9-1,1.4-2,1.4-2.7c0-1.1-1-2.3-2.8-3.3
			l-6.3-3.5v-45.8l3.1-4c0.5-0.7,0.7-1.4,0.7-2.1c0-0.3-0.2-0.9-1.5-1.9c-1.1-0.9-2.6-1.8-4.3-2.9l-1.2-0.7l-4.8-2.8
			c-1.4-1-2.8-1.5-4.2-1.5c-0.5,0-1.1,0.4-1.8,1l-5.8,5.9c-0.8,0.8-0.9,1.2-0.9,1.3c0,0.8,0.4,1.5,1.2,2.3l5.6,5.3v45.5l-0.3,0.2
			c-4.9,3.2-10.4,4.8-16.5,4.8c-2.6,0-5.1-0.4-7.4-1.2c-2.2-0.8-4.9-1.9-8-3.4c-1.3-0.6-2.4-1.1-3.1-1.4l-0.4-0.2v-51.1
			c0-2-1-3.6-3.2-4.9l-4.8-2.8c-1.4-1-2.8-1.5-4.2-1.5c-0.5,0-1.1,0.4-1.8,1l-5.8,5.9c-0.8,0.8-0.9,1.2-0.9,1.3
			c0,0.8,0.4,1.5,1.2,2.3l5.6,5.3v44.8l-0.3,0.2c-1.5,0.8-2.8,1.7-3.9,2.8c-1.3,1.2-1.6,2-1.6,2.4c0,0.2,0,1,1.6,1.7
			c1.2,0.6,3.3,1.2,6.2,1.9l0,0l2.3,0.6c1.2,0.4,2.1,0.6,2.7,0.8c1.2,0.4,3,1,5.3,1.9c5.4,2.2,9.6,3.3,12.4,3.3
			c1.9,0,4.2-0.5,6.9-1.6c2.7-1.1,6.4-2.8,10.9-5.1c2.9-1.4,5-2.4,6.1-3L950.4,172z"/>
	</g>
	<g>
		<path class="st0" d="M1051.6,114.6c6,5.8,8.9,14.1,8.9,25c0,7.2-1.8,13.8-5.5,19.7c-3.7,5.9-8.4,11.1-14.3,15.5
			c-4.4,3.3-8.8,5.8-13,7.6c-4.2,1.8-8.2,2.7-12.1,2.7c-1.2,0-2.4-0.1-3.7-0.4c-1.3-0.3-3.6-1-7-2c-2.2-0.7-5.3-1.6-9.4-2.8
			c-4-1.2-8.6-2.4-13.6-3.7c-1.4-0.4-2.1-1.2-2.1-2.5c0-0.8,0.3-1.5,1.1-2.1l6.7-5.4V45c0-1.8,0.8-3.2,2.3-4.2l10.3-6.8
			c0.5-0.4,0.9-0.5,1.2-0.5c0.8,0,1.2,1.1,1.2,3.2v81.8c3.5-3.9,7.5-6.9,12.1-9.1c4.6-2.2,9.1-3.3,13.7-3.3
			C1038,106,1045.7,108.9,1051.6,114.6z M1002.7,124.7v40c2.2,1.5,5.4,3.2,9.5,5.1c0.5,0.1,1.1,0.4,1.8,0.7c3.2,1.3,5.7,2.2,7.5,2.8
			c1.9,0.6,3.9,0.9,6,0.9c2.5,0,4.9-0.9,7.4-2.6c2.5-1.8,4.7-4.1,6.8-7.1c2-3,3.6-6.3,4.8-9.8c1.2-3.6,1.8-7.1,1.8-10.6
			c0-4.3-0.8-7.9-2.4-10.8c-1.6-2.9-3.7-5.6-6.4-8.2c-2.6-2.6-5.2-4.5-8-5.7c-2.7-1.2-6.1-1.8-10.1-1.8
			C1013.7,117.5,1007.5,119.9,1002.7,124.7z"/>
		<path class="st0" d="M1015.7,185.8c-1.2,0-2.5-0.2-3.8-0.5c-1.3-0.3-3.7-1-7.1-2c-2.3-0.7-5.4-1.7-9.4-2.8
			c-4-1.2-8.6-2.4-13.6-3.7c-2.1-0.5-2.6-2-2.6-3.1c0-1,0.4-1.9,1.3-2.6l6.4-5.2V45c0-2,0.9-3.6,2.6-4.7l10.3-6.8
			c0.6-0.4,1.1-0.6,1.6-0.6c1.9,0,1.9,2.9,1.9,3.8v80.2c3.3-3.3,7-6.1,11.2-8.1c4.6-2.3,9.3-3.4,13.9-3.4c9.6,0,17.5,3,23.6,8.9
			c6.1,5.9,9.1,14.4,9.1,25.4c0,7.3-1.9,14.1-5.6,20.1c-3.7,5.9-8.6,11.2-14.4,15.7c-4.5,3.3-8.9,5.9-13.1,7.7
			C1023.8,184.9,1019.6,185.8,1015.7,185.8z M1001.5,34c-0.1,0-0.4,0.1-0.8,0.4l0,0l-10.3,6.8c-1.3,0.9-2,2.1-2,3.7v121.6l-6.9,5.6
			c-0.5,0.5-0.8,1-0.8,1.6c0,1,0.5,1.6,1.6,1.8c5,1.3,9.6,2.5,13.6,3.7c3.9,1.1,7.1,2.1,9.4,2.8c3.3,1,5.7,1.7,7,2
			c1.2,0.3,2.4,0.4,3.5,0.4c3.7,0,7.7-0.9,11.8-2.7c4.1-1.8,8.5-4.3,12.8-7.6c5.7-4.4,10.5-9.5,14.1-15.3c3.6-5.8,5.4-12.3,5.4-19.4
			c0-10.6-2.9-18.9-8.7-24.5c-5.8-5.6-13.4-8.5-22.7-8.5c-4.4,0-8.9,1.1-13.4,3.3c-4.5,2.2-8.5,5.2-11.9,9l-1.1,1.2V36.6
			C1002.1,34.6,1001.7,34,1001.5,34z M1027.4,174.8c-2.2,0-4.2-0.3-6.1-0.9c-1.9-0.6-4.4-1.5-7.6-2.8l0,0c-0.7-0.3-1.2-0.5-1.6-0.7
			l-0.1,0l-0.1,0c-4.1-1.9-7.3-3.6-9.6-5.1l-0.3-0.2v-40.6l0.2-0.2c4.9-4.9,11.3-7.4,19-7.4c4,0,7.5,0.6,10.3,1.9
			c2.8,1.3,5.5,3.2,8.2,5.8c2.7,2.6,4.9,5.4,6.5,8.3c1.6,2.9,2.4,6.7,2.4,11.1c0,3.6-0.6,7.2-1.8,10.8c-1.2,3.6-2.8,7-4.9,10
			c-2.1,3-4.4,5.5-6.9,7.3C1032.6,173.8,1030,174.8,1027.4,174.8z M1014.2,169.9c3.1,1.3,5.6,2.2,7.5,2.8c1.8,0.6,3.7,0.8,5.8,0.8
			c2.3,0,4.7-0.8,7-2.5c2.4-1.7,4.6-4,6.6-6.9c2-2.9,3.6-6.2,4.7-9.7c1.1-3.5,1.7-7,1.7-10.4c0-4.2-0.8-7.7-2.3-10.5
			c-1.5-2.8-3.6-5.5-6.3-8c-2.5-2.5-5.1-4.4-7.8-5.6c-2.6-1.2-6-1.8-9.8-1.8c-7.3,0-13.3,2.3-17.9,6.8v39.4c2.2,1.4,5.2,3.1,9,4.8
			C1012.9,169.3,1013.5,169.5,1014.2,169.9z"/>
	</g>
</g>
<g>
	<g>
		<path class="st0" d="M610.1,350c-0.9-0.5-1.4-1.1-1.4-1.9c0-1.3,1-2.6,2.9-3.9c1.9-1.3,4.8-3.1,8.5-5.2c3.6-1.9,6.4-3.4,8.4-4.7
			c2-1.3,3.7-2.6,5.1-4c8.5-8.8,15.3-17.3,20.4-25.6c5.1-8.3,7.6-16.8,7.6-25.4c0-20.1-4.1-35.8-12.2-47.1
			c-8.1-11.3-19.3-17.1-33.6-17.2c-7.2,0-13.7,1.2-19.4,3.7c-5.7,2.5-10,5.3-13.1,8.6v108.5l5.8,3.5c2.1,1.2,3.2,2.5,3.2,3.9
			c0,0.9-0.5,2-1.6,3.2l-5.8,6.5c-0.7,0.7-1.5,1.1-2.5,1.1c-0.7,0-1.7-0.4-3-1.1l-17.2-8.9c-1.2-0.7-1.8-1.3-1.8-1.9
			c0-0.4,0.3-0.8,0.9-1.4l6.8-5.4V230.3c0-3.5-0.3-6.4-1-8.7c-0.6-2.3-1.5-4-2.6-5.2c-1.1-1.2-2.3-2-3.7-2.4
			c-1.3-0.4-2.7-0.6-4.1-0.6c-4.3,0-7.9,0.4-10.9,1.1c-2.9,0.7-5.3,1.6-7,2.8c-1.8,1.2-3.1,2.4-4.1,3.7c-1,1.3-2,2.9-3.1,4.7
			c0,0.1-0.1,0.3-0.2,0.5v109.4l5.8,3.5c2.1,1.2,3.2,2.5,3.2,3.9c0,0.9-0.5,2-1.6,3.2l-5.8,6.5c-0.7,0.7-1.5,1.1-2.5,1.1
			c-0.7,0-1.7-0.4-3-1.1l-17.2-8.9c-1.2-0.7-1.8-1.3-1.8-1.9c0-0.4,0.3-0.8,0.9-1.4l6.8-5.4V220.3l-9.3-5.8
			c-0.9-0.6-1.4-1.5-1.4-2.8c0-0.5,0.4-1.1,1.1-1.8l9.6-7.7c0.8-0.8,1.6-1.2,2.3-1.2c1.5,0,3,0.5,4.6,1.6l4.7,2.8
			c2.3,1.4,3.5,3.2,3.5,5.4v5.6c2.1-3.2,5.8-6.1,11.2-8.9c5.4-2.8,11.7-4.2,18.9-4.2c6.9,0,11.9,1.2,15.2,3.6
			c3.2,2.4,5.2,6.8,5.9,13.2c5.7-4.4,12-8.2,18.8-11.4c6.8-3.2,13.6-4.7,20.3-4.7c17.2,0,30.8,5.6,40.7,16.7
			c10,11.2,15,27.1,15,47.8c0,7.7-0.9,14.6-2.7,20.7c-1.8,6.1-4.3,11.5-7.4,16.2c-3.1,4.7-6.6,9-10.4,12.7c-3.9,3.7-8.5,7.8-14,12.1
			l-0.2,0.2c-1.6,1.2-3.3,2.5-4.9,3.9c-1.6,1.4-2.6,2.5-3,3.3c3.5-0.9,6.7-1.4,9.5-1.4c1.9,0,4.1,0.7,6.8,2.1
			c2.8,1.5,5.2,2.3,7.2,2.3c1.1,0,3-0.8,6-2.3c2.8-1.5,4.7-2.3,5.8-2.3c0.7,0,1.4,0.3,2,1c0.6,0.6,1,1.3,1,1.8c0,1.4-0.8,3-2.4,4.7
			c-1.6,1.8-3.6,3.4-6,4.9c-2.5,1.5-5,2.8-7.5,3.8c-2.6,1-4.9,1.5-6.8,1.5c-3.3,0-8.4-0.9-15.2-2.6c-6-1.6-10.2-2.5-12.6-2.5
			c-1.3,0-2.3,0.1-3,0.2c-0.7,0.1-1.5,0.4-2.3,0.7c-1.5,0.6-3,1-4.4,1.2C612.1,350.7,611.1,350.5,610.1,350z"/>
		<path class="st0" d="M650.6,354.3c-3.3,0-8.5-0.9-15.4-2.6c-5.9-1.6-10.1-2.4-12.5-2.4c-1.3,0-2.2,0.1-2.9,0.2
			c-0.6,0.1-1.4,0.3-2.1,0.7l0,0c-1.5,0.6-3.1,1-4.5,1.3l-0.1,0c-1.1,0-2.2-0.3-3.3-0.8c-1.4-0.7-1.8-1.8-1.8-2.5c0-1.5,1-3,3.2-4.5
			c1.9-1.4,4.8-3.1,8.6-5.2l0,0c3.6-1.8,6.4-3.4,8.4-4.7c1.9-1.3,3.6-2.6,5-3.9c8.5-8.7,15.3-17.3,20.3-25.5
			c5-8.2,7.5-16.6,7.5-25.1c0-19.9-4.1-35.6-12.1-46.8c-8-11.1-19.1-16.8-33-16.9c-7.1,0-13.5,1.2-19.1,3.6
			c-5.5,2.4-9.7,5.1-12.7,8.3v107.9l5.5,3.3c2.3,1.3,3.5,2.8,3.5,4.4c0,1.1-0.6,2.3-1.7,3.6l-5.8,6.5c-0.8,0.8-1.8,1.2-2.9,1.2
			c-0.8,0-1.9-0.4-3.3-1.1l-17.2-9c-1.4-0.8-2.1-1.6-2.1-2.5c0-0.5,0.3-1.1,1.1-1.9l0.1,0l6.6-5.2V230.3c0-3.4-0.3-6.3-0.9-8.5
			c-0.6-2.2-1.4-3.8-2.5-4.9c-1-1.1-2.2-1.8-3.4-2.2c-1.3-0.4-2.6-0.6-3.9-0.6c-4.3,0-7.9,0.3-10.7,1c-2.8,0.7-5.1,1.6-6.8,2.7
			c-1.7,1.1-3,2.3-4,3.5c-0.9,1.2-1.9,2.8-3,4.5c0,0.1-0.1,0.3-0.2,0.5v108.9l5.5,3.3c2.3,1.3,3.5,2.8,3.5,4.4
			c0,1.1-0.6,2.3-1.7,3.6l-5.8,6.5c-0.8,0.8-1.8,1.2-2.9,1.2c-0.8,0-1.9-0.4-3.3-1.1l-17.2-9c-1.4-0.8-2.1-1.6-2.1-2.5
			c0-0.5,0.3-1.1,1.1-1.9l0.1,0l6.6-5.2v-114l-9-5.6c-1.1-0.7-1.7-1.8-1.7-3.3c0-0.6,0.4-1.4,1.2-2.2l0.1,0l9.6-7.7
			c0.9-0.9,1.8-1.4,2.7-1.4c1.6,0,3.3,0.6,4.9,1.7l4.7,2.8c2.5,1.5,3.8,3.5,3.8,6v3.7c2.3-2.7,5.7-5.2,10.3-7.6
			c5.4-2.8,11.9-4.3,19.2-4.3c7,0,12.2,1.3,15.5,3.7c3.2,2.4,5.2,6.6,6,12.6c5.5-4.2,11.5-7.8,18-10.8c6.8-3.2,13.8-4.8,20.6-4.8
			c8.6,0,16.5,1.4,23.3,4.2c6.8,2.8,12.9,7.1,17.9,12.7c5,5.6,8.9,12.5,11.4,20.5c2.5,8,3.8,17.3,3.8,27.6c0,7.7-0.9,14.8-2.7,20.9
			c-1.8,6.1-4.3,11.6-7.4,16.4c-3.1,4.8-6.7,9.1-10.5,12.8c-3.8,3.7-8.6,7.8-14,12.1l-0.2,0.2c-1.6,1.2-3.3,2.4-4.9,3.8
			c-0.9,0.7-1.5,1.3-1.9,1.8c2.9-0.7,5.6-1,8-1c2,0,4.4,0.7,7.1,2.2c2.7,1.5,5,2.2,6.9,2.2c0.6,0,2.2-0.4,5.7-2.2
			c2.9-1.6,4.9-2.4,6.1-2.4c0.9,0,1.7,0.4,2.5,1.2c0.8,0.8,1.2,1.5,1.2,2.3c0,1.6-0.8,3.3-2.5,5.2c-1.6,1.8-3.7,3.5-6.2,5
			c-2.5,1.5-5,2.8-7.6,3.8C655.1,353.8,652.7,354.3,650.6,354.3z M622.8,347.9c2.5,0,6.8,0.8,12.8,2.5c6.8,1.7,11.9,2.6,15.1,2.6
			c1.9,0,4.1-0.5,6.6-1.4c2.5-1,5-2.2,7.4-3.7c2.4-1.5,4.4-3.1,5.9-4.8c1.5-1.6,2.2-3.1,2.2-4.3c0-0.4-0.3-0.9-0.8-1.4
			c-0.5-0.5-1-0.8-1.6-0.8c-0.6,0-2.1,0.4-5.5,2.2c-3,1.6-5.1,2.4-6.3,2.4c-2.1,0-4.6-0.8-7.5-2.4c-2.6-1.3-4.8-2-6.5-2
			c-2.7,0-5.9,0.5-9.3,1.4l-1.3,0.3l0.5-1.2c0.4-0.9,1.4-2.1,3.2-3.6c1.6-1.4,3.3-2.7,4.9-3.9l0.2-0.2c5.5-4.3,10.2-8.3,14-12
			c3.8-3.7,7.3-7.9,10.3-12.6c3-4.7,5.5-10.1,7.3-16c1.8-6,2.7-12.9,2.7-20.5c0-20.4-5-36.3-14.8-47.3c-9.8-11-23.4-16.5-40.3-16.5
			c-6.7,0-13.4,1.6-20.1,4.7c-6.7,3.1-13,6.9-18.6,11.3l-0.9,0.7l-0.1-1.1c-0.7-6.2-2.6-10.5-5.6-12.8c-3.1-2.3-8.1-3.5-14.8-3.5
			c-7.1,0-13.4,1.4-18.6,4.1c-5.3,2.7-8.9,5.7-11,8.7l-1.2,1.8v-7.7c0-2-1-3.6-3.2-4.9l-4.8-2.8c-1.4-1-2.8-1.5-4.2-1.5
			c-0.5,0-1.1,0.4-1.8,1l-0.1,0l-9.6,7.7c-0.8,0.8-0.8,1.2-0.8,1.3c0,1.1,0.4,1.8,1.1,2.3l9.6,6v115.3l-7,5.6
			c-0.7,0.7-0.7,0.9-0.7,0.9c0,0.1,0.1,0.6,1.4,1.4l17.2,8.9c1.5,0.8,2.3,1,2.7,1c0.8,0,1.4-0.3,2-0.9l5.8-6.5c0.9-1,1.4-2,1.4-2.7
			c0-1.1-1-2.3-2.8-3.3l0,0l-6.1-3.7V226.1l0.1-0.1c0.1-0.2,0.1-0.2,0.1-0.3v-0.1l0.1-0.1c1.1-1.9,2.1-3.5,3.1-4.8
			c1-1.3,2.5-2.6,4.3-3.8c1.8-1.2,4.2-2.2,7.2-2.9c3-0.7,6.7-1.1,11-1.1c1.5,0,2.9,0.2,4.3,0.6c1.4,0.4,2.8,1.3,4,2.5
			c1.2,1.2,2.1,3.1,2.8,5.4c0.7,2.3,1,5.3,1,8.9v104.9l-7,5.6c-0.7,0.7-0.7,0.9-0.7,0.9c0,0.1,0.1,0.6,1.4,1.4l17.2,8.9
			c1.5,0.8,2.3,1,2.7,1c0.8,0,1.4-0.3,2-0.9l5.8-6.5c0.9-1,1.4-2,1.4-2.7c0-1.1-0.9-2.3-2.8-3.3l0,0l-6.1-3.7V226.9l0.2-0.2
			c3.1-3.3,7.6-6.3,13.3-8.7c5.7-2.5,12.3-3.7,19.6-3.7c7.2,0.1,13.7,1.6,19.4,4.5c5.7,2.9,10.6,7.3,14.7,13
			c8.2,11.4,12.3,27.4,12.3,47.5c0,8.7-2.6,17.4-7.7,25.7c-5.1,8.3-12,16.9-20.5,25.7c-1.4,1.4-3.2,2.8-5.2,4.1
			c-2,1.3-4.8,2.9-8.5,4.8c-3.7,2.1-6.5,3.8-8.4,5.1c-1.7,1.2-2.6,2.4-2.6,3.4c0,0.4,0.1,0.9,1,1.4c0.8,0.4,1.7,0.6,2.6,0.6
			c1.3-0.2,2.7-0.6,4.2-1.2c0.9-0.4,1.7-0.6,2.4-0.7C620.4,348,621.4,347.9,622.8,347.9z"/>
	</g>
	<g>
		<path class="st0" d="M743.4,274.9c3.6,1.1,6.9,2.6,10.1,4.5c0.7,0.5,1.3,0.7,1.8,0.7c0.1,0,0.2-0.1,0.3-0.2h0.2l10.3-6.8
			c0.5-0.4,0.9-0.5,1.2-0.5c0.8,0,1.2,1.1,1.2,3.2v59.8l1.9,1.6l0.2,0.2c2,1.5,3,2.7,3,3.7c0,0.9-0.5,2-1.6,3.2l-7.5,6.1
			c-1.1,0.8-2.1,1.2-3.2,1.2c-0.7,0-1.5-0.4-2.3-1.2l-5.6-5.8v-6.3c-4.9,3.5-10,6.4-15.2,8.8c-5.2,2.3-10,3.5-14.3,3.5
			c-12,0-21.8-3-29.2-9c-7.4-6-11.1-14.3-11.1-24.8c0-5.7,1.7-11.4,5.2-17.2c3.4-5.7,7.9-10.7,13.2-15.1c4.4-3.5,9-6.2,13.7-8.1
			c4.7-1.9,9.6-2.9,14.9-2.9C735.6,273.2,739.9,273.8,743.4,274.9z M704.3,290.2c-5,4-7.5,10.1-7.5,18.4c0,4.1,1,8,3,11.8
			c2,3.8,4.7,7.2,8.2,10.2c3.4,3,7.3,5.3,11.5,6.9c4.2,1.6,8.5,2.5,12.8,2.5c4.9,0,9.1-1.1,12.6-3.2c3.5-2.1,6.4-4.8,8.6-8.2v-34.2
			c-0.4-0.5-0.7-0.7-1.1-0.7s-0.9,0.2-1.6,0.5c-0.8,0.5-1.5,0.7-1.9,0.7c-0.5,0-0.9-0.2-1.2-0.5c-3-3-6.5-5.5-10.5-7.4
			c-4-1.9-7.9-2.8-11.9-2.8C716.3,284.3,709.3,286.3,704.3,290.2z"/>
		<path class="st0" d="M761.4,352c-0.9,0-1.8-0.5-2.7-1.4l-5.8-6v-5.3c-4.6,3.2-9.4,5.9-14.3,8.1c-5.3,2.4-10.2,3.6-14.5,3.6
			c-12.1,0-22.1-3.1-29.6-9.2c-7.5-6.1-11.4-14.6-11.4-25.3c0-5.8,1.8-11.7,5.3-17.5c3.5-5.8,8-10.9,13.4-15.2
			c4.5-3.5,9.1-6.3,13.8-8.2c4.7-2,9.8-2.9,15.1-2.9c4.9,0,9.3,0.6,12.9,1.7c3.6,1.1,7,2.6,10.2,4.5l0,0c0.7,0.4,1.1,0.6,1.3,0.6
			l0.2-0.2h0.2l10.2-6.7c0.6-0.4,1.1-0.6,1.6-0.6c1.9,0,1.9,2.9,1.9,3.8v59.5l1.7,1.4l0.1,0.1c2.2,1.7,3.2,3,3.2,4.2
			c0,1.1-0.6,2.3-1.7,3.6l-0.1,0.1l-7.5,6.1C763.8,351.6,762.6,352,761.4,352z M754.1,344.1l5.4,5.6c0.7,0.7,1.3,1,1.8,1
			c0.9,0,1.8-0.4,2.8-1.1l7.5-6.1c0.9-1,1.4-1.9,1.4-2.7c0-0.4-0.4-1.4-2.7-3.2l-0.1-0.1l-0.2-0.2l-2.1-1.8v-60.1
			c0-2-0.4-2.5-0.6-2.5c-0.1,0-0.4,0.1-0.8,0.4l0,0l-10.5,6.9h-0.1c-0.2,0.1-0.4,0.2-0.6,0.2c-0.6,0-1.3-0.3-2.1-0.8
			c-3.1-1.8-6.4-3.3-9.9-4.4c-3.5-1.1-7.7-1.6-12.5-1.6c-5.2,0-10.1,1-14.7,2.8c-4.6,1.9-9.1,4.6-13.5,8.1
			c-5.3,4.3-9.7,9.3-13.1,14.9c-3.4,5.6-5.1,11.3-5.1,16.8c0,10.3,3.7,18.4,10.9,24.3c7.3,5.9,17,8.9,28.8,8.9c4.2,0,8.9-1.2,14-3.4
			c5.1-2.3,10.2-5.2,15-8.7l1-0.7V344.1z M732.3,340.6c-4.4,0-8.8-0.8-13-2.5c-4.3-1.7-8.2-4-11.7-7c-3.5-3-6.3-6.5-8.3-10.4
			c-2-3.9-3.1-7.9-3.1-12.1c0-8.5,2.6-14.8,7.7-18.9c5.1-4,12.2-6.1,21.3-6.1c4,0,8.1,1,12.2,2.9c4,1.9,7.6,4.4,10.7,7.5
			c0.2,0.2,0.5,0.3,0.8,0.3c0.2,0,0.7-0.1,1.6-0.6l0,0c0.8-0.4,1.4-0.6,1.9-0.6c0.6,0,1.1,0.3,1.6,1l0.1,0.2v34.6L754,329
			c-2.3,3.4-5.2,6.3-8.8,8.4C741.6,339.5,737.3,340.6,732.3,340.6z M725.3,284.9c-8.8,0-15.7,2-20.5,5.8c-4.8,3.8-7.2,9.9-7.2,17.9
			c0,4,1,7.9,2.9,11.5c1.9,3.7,4.6,7.1,8,10c3.4,2.9,7.2,5.2,11.3,6.8c4.1,1.6,8.3,2.4,12.6,2.4c4.8,0,8.9-1,12.3-3.1
			c3.4-2,6.1-4.7,8.3-7.9v-33.8c-0.2-0.2-0.3-0.3-0.4-0.3c-0.1,0-0.5,0-1.3,0.4c-0.9,0.5-1.6,0.8-2.2,0.8c-0.6,0-1.2-0.2-1.7-0.7
			c-3-3-6.4-5.4-10.3-7.2C733.1,285.8,729.1,284.9,725.3,284.9z"/>
	</g>
	<g>
		<path class="st0" d="M839.3,274.9c3.6,1.1,6.9,2.6,10.1,4.5c0.7,0.5,1.3,0.7,1.8,0.7c0.1,0,0.2-0.1,0.3-0.2h0.2l10.3-6.8
			c0.5-0.4,0.9-0.5,1.2-0.5c0.8,0,1.2,1.1,1.2,3.2v55.7c0.9,1.8,2.4,3.7,4.4,6c1.9,2.1,2.8,3.9,2.8,5.3c0,4.2-1.6,8.2-4.9,12.1
			c-3.3,3.9-7.8,7.7-13.7,11.6c-4.4,3-9.8,5.2-15.9,6.6c-6.2,1.3-11.6,2-16.3,2c-7.2,0-13.3-1.2-18.1-3.7c-4.8-2.5-7.2-5.8-7.2-10
			c0-2.2,0.7-4.5,2.2-6.7c1.5-2.3,3.5-4.3,6-6c-2.8-1.1-5.6-2.6-8.4-4.6c-2.8-2-5.4-4.3-7.8-7c-2.4-2.7-4.3-5.8-5.8-9.2
			c-1.5-3.4-2.2-7.2-2.2-11.1c0-5.3,1.5-10.5,4.4-15.7c2.9-5.2,6.8-10,11.6-14.5c4.6-4.2,9.4-7.4,14.5-9.7
			c5.1-2.3,10.6-3.4,16.5-3.4C831.5,273.2,835.7,273.8,839.3,274.9z M800.2,290.2c-5,4-7.4,10.1-7.4,18.4c0,8.8,2.5,16,7.6,21.8
			c5.1,5.8,11.8,8.7,20.2,8.7c5.6,0,11.3-1,17.2-3.1c5.8-2,9.7-4.5,11.6-7.4v-34.2c-0.4-0.5-0.7-0.7-1.1-0.7c-0.3,0-0.9,0.2-1.6,0.5
			c-0.8,0.5-1.5,0.7-1.9,0.7c-0.5,0-0.9-0.2-1.2-0.5c-3-3-6.5-5.5-10.5-7.4c-4-1.9-7.9-2.8-11.9-2.8
			C812.1,284.3,805.2,286.3,800.2,290.2z M826.1,346.8c-6.3,2.3-10.7,3.5-13.1,3.5c-4.1,2.5-6.1,5.3-6.1,8.6c0,2.6,1.5,4.7,4.6,6.3
			c3,1.6,7.8,2.5,14.2,2.5c2.9,0,6.5-0.4,10.7-1.2c4.2-0.8,7.8-2.1,10.9-3.9c3-1.9,5.6-4.3,7.6-7.3c2-3,3.1-5.2,3.1-6.6
			c0-0.6-0.4-1.3-1.1-2.2c-0.8-0.9-1.7-1.9-2.9-3.1l-0.7-0.7c-1.3-1.4-2.3-2.4-3.2-2.9c-0.8-0.5-2-0.8-3.5-0.8
			c-1.4,0-3.9,0.9-7.5,2.6c-2.9,1.4-5.3,2.5-7.2,3.2C830.7,345.3,828.9,345.9,826.1,346.8z"/>
		<path class="st0" d="M820.8,375.5c-7.3,0-13.5-1.3-18.3-3.7c-5-2.6-7.5-6.1-7.5-10.6c0-2.3,0.8-4.7,2.3-7.1c1.3-2,3.1-3.9,5.3-5.5
			c-2.5-1-5-2.4-7.5-4.2c-2.8-2-5.5-4.4-7.9-7.1c-2.4-2.7-4.4-5.9-5.9-9.4c-1.5-3.5-2.2-7.3-2.2-11.4c0-5.3,1.5-10.7,4.5-16
			c2.9-5.2,6.9-10.1,11.7-14.6c4.6-4.2,9.5-7.5,14.7-9.8c5.2-2.3,10.8-3.5,16.7-3.5c4.9,0,9.3,0.6,12.9,1.7c3.6,1.1,7,2.6,10.2,4.5
			l0,0c0.7,0.4,1.1,0.6,1.3,0.6l0.2-0.2h0.2l10.2-6.7c0.6-0.4,1.1-0.6,1.6-0.6c1.9,0,1.9,2.9,1.9,3.8v55.6c0.9,1.7,2.3,3.6,4.2,5.7
			c2,2.2,3,4.1,3,5.7c0,4.3-1.7,8.5-5.1,12.5c-3.3,3.9-7.9,7.8-13.8,11.7c-4.5,3.1-9.9,5.3-16.2,6.7
			C831,374.8,825.5,375.5,820.8,375.5z M826.6,273.9c-5.7,0-11.2,1.1-16.2,3.4c-5,2.2-9.9,5.5-14.4,9.6c-4.7,4.4-8.6,9.2-11.4,14.3
			c-2.9,5.1-4.3,10.3-4.3,15.4c0,3.9,0.7,7.5,2.1,10.9c1.4,3.4,3.3,6.4,5.7,9c2.3,2.6,4.9,5,7.7,6.9c2.7,1.9,5.5,3.5,8.3,4.5
			l1.2,0.4l-1,0.7c-2.5,1.7-4.5,3.7-5.9,5.9c-1.4,2.2-2.1,4.3-2.1,6.4c0,4,2.2,7.1,6.8,9.4c4.7,2.4,10.7,3.6,17.8,3.6
			c4.6,0,10-0.7,16.2-2c6.1-1.3,11.4-3.5,15.7-6.5c5.8-3.8,10.3-7.7,13.5-11.5c3.2-3.7,4.8-7.7,4.8-11.7c0-1.2-0.9-2.9-2.6-4.8
			c-2-2.2-3.5-4.3-4.5-6.1l-0.1-0.1v-55.9c0-2-0.4-2.5-0.6-2.5c-0.1,0-0.4,0.1-0.8,0.4l0,0l-10.5,6.9h-0.1c-0.2,0.1-0.4,0.2-0.6,0.2
			c-0.6,0-1.3-0.3-2.1-0.8c-3.1-1.8-6.4-3.3-9.9-4.4C835.6,274.4,831.4,273.9,826.6,273.9z M825.5,368.3c-6.5,0-11.4-0.9-14.5-2.5
			c-3.2-1.7-4.9-4.1-4.9-6.9c0-3.5,2.2-6.6,6.4-9.1l0.2-0.1h0.2c2.4,0,6.7-1.2,12.9-3.5l0,0c2.8-1,4.7-1.6,5.6-1.9
			c1.8-0.7,4.2-1.7,7.1-3.1c3.7-1.8,6.3-2.7,7.8-2.7c1.6,0,2.9,0.3,3.9,0.9c0.9,0.6,1.9,1.5,3.3,3l0.7,0.7c1.2,1.2,2.1,2.2,2.9,3.1
			c0.9,1,1.3,1.9,1.3,2.6c0,1.5-1,3.8-3.2,6.9c-2.1,3-4.7,5.5-7.8,7.5l0,0c-3.1,1.8-6.8,3.1-11.1,3.9
			C832.1,367.9,828.5,368.3,825.5,368.3z M813.1,351c-3.8,2.3-5.7,5-5.7,7.9c0,2.3,1.4,4.2,4.2,5.7c2.9,1.6,7.6,2.4,13.9,2.4
			c2.9,0,6.4-0.4,10.6-1.2c4.1-0.8,7.7-2.1,10.7-3.8c2.9-1.8,5.4-4.2,7.4-7.1c2.4-3.6,3-5.3,3-6.2c0-0.2-0.1-0.8-1-1.8
			c-0.8-0.9-1.7-1.9-2.9-3l-0.7-0.7c-1.2-1.4-2.3-2.3-3-2.8c-0.7-0.5-1.8-0.7-3.2-0.7c-0.9,0-2.9,0.4-7.3,2.6
			c-2.9,1.4-5.4,2.5-7.2,3.2c-0.9,0.3-2.8,1-5.6,1.9C820,349.8,815.7,350.9,813.1,351z M820.6,339.8c-8.6,0-15.5-3-20.7-8.9
			c-5.2-5.9-7.8-13.4-7.8-22.2c0-8.5,2.6-14.8,7.7-18.9c5.1-4,12.2-6.1,21.3-6.1c4,0,8.1,1,12.2,2.9c4,1.9,7.6,4.4,10.7,7.5
			c0.2,0.2,0.5,0.3,0.8,0.3c0.2,0,0.7-0.1,1.6-0.6l0,0c0.8-0.4,1.4-0.6,1.9-0.6c0.6,0,1.1,0.3,1.6,1l0.1,0.2v34.6l-0.1,0.2
			c-1.9,3-5.9,5.6-11.9,7.7C832.1,338.7,826.3,339.8,820.6,339.8z M821.1,284.9c-8.8,0-15.7,2-20.5,5.8c-4.8,3.8-7.2,9.9-7.2,17.9
			c0,8.6,2.5,15.8,7.5,21.4c4.9,5.6,11.6,8.5,19.8,8.5c5.5,0,11.2-1,17-3c5.6-1.9,9.3-4.3,11.1-7v-33.8c-0.2-0.2-0.3-0.3-0.4-0.3
			c-0.1,0-0.5,0-1.3,0.4c-0.9,0.5-1.6,0.8-2.2,0.8c-0.6,0-1.2-0.2-1.7-0.7c-3-3-6.5-5.4-10.3-7.2C828.9,285.8,825,284.9,821.1,284.9
			z"/>
	</g>
	<g>
		<path class="st0" d="M950,282.6c0.9,0.9,1.4,1.6,1.4,2c0,0.8-0.9,1.9-2.6,3.3l-52,37.7c3.2,4.2,7.4,7.6,12.6,10.1
			c5.3,2.5,10.7,3.8,16.3,3.8c4.3,0,8-0.6,11-1.7c3-1.1,5.8-2.7,8.3-4.6c0.4-0.4,0.6-0.6,0.9-0.7c0.9-0.9,1.6-1.4,2.1-1.4
			c0.5,0,1.1,0.4,1.8,1.1l1.6,1.8c0.5,0.5,0.7,0.9,0.7,1.2c0,0.4-0.3,0.8-0.9,1.4c-0.2,0.1-0.5,0.3-0.7,0.5
			c-5.1,4-10.4,7.1-15.8,9.4c-5.4,2.3-11.1,3.4-17.2,3.4c-13.6,0-23.6-3.3-30.1-9.9c-6.5-6.6-9.7-15.6-9.7-26.9
			c0-5,1.2-9.7,3.6-13.9c2.4-4.3,5.8-8.3,10.1-12.2c4.4-4,9.2-7.1,14.3-9.5c5.1-2.3,10.5-3.5,16.4-3.5c9.3,0,17.5,2,24.5,6.1
			C947.9,280.9,949,281.7,950,282.6z M909,284.4c-3,1.3-5.8,3.2-8.6,5.7c-2.7,2.5-5,5.5-6.7,8.9c-1.7,3.4-2.5,7.1-2.5,11.2
			c0,3.3,0.8,6.6,2.3,10l41-30.1c-3.3-2.8-6.1-4.8-8.5-5.9c-2.4-1.1-5.3-1.7-8.9-1.7C914.7,282.5,912,283.2,909,284.4z"/>
		<path class="st0" d="M917.4,350.5c-13.7,0-23.9-3.4-30.5-10.1c-6.6-6.7-9.9-15.9-9.9-27.3c0-5.1,1.2-9.9,3.7-14.2
			c2.4-4.3,5.8-8.5,10.2-12.3c4.5-4,9.3-7.2,14.4-9.6c5.1-2.4,10.7-3.6,16.7-3.6c9.4,0,17.8,2.1,24.9,6.2c1.4,0.8,2.7,1.7,3.6,2.6
			c1.1,1,1.6,1.8,1.6,2.5c0,1-0.9,2.3-2.9,3.8l0,0l-51.5,37.3c3,3.9,7.1,7,12,9.4c5.1,2.5,10.5,3.7,16,3.7c4.2,0,7.8-0.5,10.7-1.6
			c2.9-1.1,5.6-2.6,8.1-4.5c0.3-0.3,0.7-0.6,0.9-0.7c1.1-1.1,1.8-1.5,2.5-1.5c0.7,0,1.4,0.4,2.2,1.2l0,0l1.6,1.7
			c0.6,0.6,0.9,1.1,0.9,1.7c0,0.5-0.3,1.1-1.1,1.9l-0.1,0.1l-0.1,0c-0.2,0.1-0.4,0.2-0.5,0.4l-0.1,0.1c-5.2,4-10.5,7.2-15.9,9.5
			C929.4,349.3,923.5,350.5,917.4,350.5z M921.9,274.6c-5.7,0-11.1,1.2-16.1,3.4c-5,2.3-9.8,5.5-14.1,9.4c-4.3,3.8-7.6,7.8-9.9,12
			c-2.3,4.1-3.5,8.7-3.5,13.6c0,11.1,3.2,20,9.5,26.5c6.3,6.4,16.3,9.7,29.6,9.7c6,0,11.7-1.1,16.9-3.4c5.3-2.2,10.5-5.4,15.6-9.3
			c0.2-0.2,0.5-0.4,0.7-0.6c0.6-0.6,0.6-0.9,0.6-0.9c0,0,0-0.3-0.5-0.8l0,0l-1.6-1.7c-0.8-0.8-1.2-0.9-1.3-0.9c0,0-0.5,0-1.7,1.2
			l-0.1,0.1l-0.1,0c-0.1,0.1-0.3,0.2-0.7,0.6l-0.1,0.1c-2.6,2-5.5,3.6-8.5,4.7c-3,1.1-6.8,1.7-11.2,1.7c-5.7,0-11.3-1.3-16.6-3.8
			c-5.3-2.5-9.7-6-12.9-10.3l-0.4-0.5l52.6-38.1c2.1-1.7,2.4-2.5,2.4-2.8c0,0,0-0.4-1.2-1.6c-0.9-0.8-2-1.7-3.4-2.5
			C939.2,276.6,931.1,274.6,921.9,274.6z M893.3,321.2l-0.3-0.7c-1.5-3.5-2.3-6.9-2.3-10.3c0-4.2,0.9-8,2.6-11.5
			c1.7-3.4,4-6.5,6.8-9c2.8-2.5,5.7-4.5,8.8-5.8c3-1.3,5.9-2,8.4-2c3.6,0,6.6,0.6,9.1,1.7c2.4,1.1,5.4,3.1,8.6,6l0.6,0.5
			L893.3,321.2z M917.2,283.2c-2.4,0-5,0.6-7.9,1.9c-2.9,1.3-5.7,3.1-8.4,5.6c-2.7,2.5-4.9,5.4-6.5,8.7c-1.6,3.3-2.5,7-2.5,10.9
			c0,2.9,0.6,6,1.9,9l39.7-29.2c-3-2.5-5.6-4.2-7.7-5.3C923.5,283.7,920.6,283.2,917.2,283.2z"/>
	</g>
	<g>
		<path class="st0" d="M986.6,338.2c2.1,1.2,3.2,2.5,3.2,3.9c0,0.9-0.5,2-1.6,3.2l-5.8,6.5c-0.6,0.7-1.3,1.1-2.3,1.1
			c-0.8,0-1.9-0.4-3.2-1.1l-17.2-8.9c-1.2-0.6-1.8-1.2-1.8-1.9c0-0.4,0.3-0.8,0.9-1.4l6.7-5.4v-29.3v-92c0-1.8,0.8-3.2,2.3-4.2
			l10.3-6.8c0.5-0.4,0.9-0.5,1.2-0.5c0.8,0,1.2,1.1,1.2,3.2v99.9v30.7L986.6,338.2z"/>
		<path class="st0" d="M980.1,353.4c-0.9,0-2.1-0.4-3.5-1.1l-17.2-8.9c-1.4-0.7-2.1-1.5-2.1-2.5c0-0.5,0.3-1.1,1.1-1.9l0,0l6.4-5.2
			v-121c0-2,0.9-3.6,2.6-4.7l10.3-6.8c0.6-0.4,1.1-0.6,1.6-0.6c1.9,0,1.9,2.9,1.9,3.8v130.2l5.6,3.1c2.3,1.3,3.5,2.8,3.5,4.4
			c0,1.1-0.6,2.3-1.7,3.6l-5.8,6.5C982.1,353,981.2,353.4,980.1,353.4z M959.3,339.9c-0.7,0.7-0.7,0.9-0.7,0.9c0,0.5,0.8,1,1.4,1.4
			l17.2,8.9c1.2,0.6,2.2,1,2.9,1c0.7,0,1.3-0.3,1.8-0.8l0,0l5.8-6.5c0.9-1,1.4-2,1.4-2.7c0-1.1-0.9-2.3-2.8-3.3l-6.3-3.5V204.4
			c0-2-0.4-2.5-0.6-2.5c-0.1,0-0.4,0.1-0.8,0.4l0,0l-10.3,6.8c-1.3,0.9-2,2.1-2,3.7v121.6L959.3,339.9z"/>
	</g>
	<g>
		<path class="st0" d="M1024.4,338.2c2.1,1.2,3.2,2.5,3.2,3.9c0,0.9-0.5,2-1.6,3.2l-5.8,6.5c-0.6,0.7-1.3,1.1-2.3,1.1
			c-0.8,0-1.9-0.4-3.2-1.1l-17.2-8.9c-1.2-0.6-1.8-1.2-1.8-1.9c0-0.4,0.3-0.8,0.9-1.4l6.7-5.4v-29.3v-92c0-1.8,0.8-3.2,2.3-4.2
			l10.3-6.8c0.5-0.4,0.9-0.5,1.2-0.5c0.8,0,1.2,1.1,1.2,3.2v99.9v30.7L1024.4,338.2z"/>
		<path class="st0" d="M1018,353.4c-0.9,0-2.1-0.4-3.5-1.1l-17.2-8.9c-1.4-0.7-2.1-1.5-2.1-2.5c0-0.5,0.3-1.1,1.1-1.9l0,0l6.4-5.2
			v-121c0-2,0.9-3.6,2.6-4.7l10.3-6.8c0.6-0.4,1.1-0.6,1.6-0.6c1.9,0,1.9,2.9,1.9,3.8v130.2l5.6,3.1c2.3,1.3,3.5,2.8,3.5,4.4
			c0,1.1-0.6,2.3-1.7,3.6l-5.8,6.5C1020,353,1019.1,353.4,1018,353.4z M997.2,339.9c-0.7,0.7-0.7,0.9-0.7,0.9c0,0.5,0.8,1,1.4,1.4
			l17.2,8.9c1.2,0.6,2.2,1,2.9,1c0.7,0,1.3-0.3,1.8-0.8l0,0l5.8-6.5c0.9-1,1.4-2,1.4-2.7c0-1.1-1-2.3-2.8-3.3l-6.3-3.5V204.4
			c0-2-0.4-2.5-0.6-2.5c-0.1,0-0.4,0.1-0.8,0.4l0,0l-10.3,6.8c-1.3,0.9-2,2.1-2,3.7v121.6L997.2,339.9z"/>
	</g>
	<g>
		<path class="st0" d="M1093.2,274.9c3.6,1.1,6.9,2.6,10.1,4.5c0.7,0.5,1.3,0.7,1.8,0.7c0.1,0,0.2-0.1,0.4-0.2h0.2l10.3-6.8
			c0.5-0.4,0.9-0.5,1.2-0.5c0.8,0,1.2,1.1,1.2,3.2v59.8l1.9,1.6l0.2,0.2c2,1.5,3,2.7,3,3.7c0,0.9-0.5,2-1.6,3.2l-7.5,6.1
			c-1.1,0.8-2.1,1.2-3.2,1.2c-0.7,0-1.5-0.4-2.3-1.2l-5.6-5.8v-6.3c-4.9,3.5-10,6.4-15.2,8.8c-5.2,2.3-10,3.5-14.3,3.5
			c-12,0-21.8-3-29.2-9c-7.4-6-11.1-14.3-11.1-24.8c0-5.7,1.7-11.4,5.2-17.2c3.4-5.7,7.9-10.7,13.2-15.1c4.4-3.5,9-6.2,13.7-8.1
			c4.7-1.9,9.6-2.9,14.9-2.9C1085.4,273.2,1089.7,273.8,1093.2,274.9z M1054.1,290.2c-5,4-7.4,10.1-7.4,18.4c0,4.1,1,8,3,11.8
			c2,3.8,4.7,7.2,8.2,10.2c3.4,3,7.3,5.3,11.5,6.9c4.2,1.6,8.5,2.5,12.8,2.5c4.9,0,9.1-1.1,12.6-3.2c3.5-2.1,6.4-4.8,8.6-8.2v-34.2
			c-0.3-0.5-0.7-0.7-1.1-0.7c-0.4,0-0.9,0.2-1.6,0.5c-0.8,0.5-1.5,0.7-1.9,0.7c-0.5,0-0.9-0.2-1.2-0.5c-3-3-6.5-5.5-10.5-7.4
			c-4-1.9-7.9-2.8-11.9-2.8C1066.1,284.3,1059.1,286.3,1054.1,290.2z"/>
		<path class="st0" d="M1111.2,352c-0.9,0-1.8-0.5-2.7-1.4l-5.8-6v-5.3c-4.6,3.2-9.4,5.9-14.3,8.1c-5.3,2.4-10.2,3.6-14.5,3.6
			c-12.1,0-22.1-3.1-29.6-9.2c-7.5-6.1-11.4-14.6-11.4-25.3c0-5.8,1.8-11.7,5.3-17.5c3.5-5.8,8-10.9,13.4-15.2
			c4.5-3.5,9.1-6.3,13.8-8.2c4.7-2,9.8-2.9,15.1-2.9c4.9,0,9.3,0.6,12.9,1.7c3.6,1.1,7,2.6,10.2,4.5l0,0c0.7,0.4,1.1,0.6,1.3,0.6
			l0.2-0.2h0.2l10.2-6.7c0.6-0.4,1.1-0.6,1.6-0.6c1.9,0,1.9,2.9,1.9,3.8v59.5l1.7,1.4l0.1,0.1c2.2,1.7,3.2,3,3.2,4.2
			c0,1.1-0.6,2.3-1.7,3.6l-0.1,0.1l-7.5,6.1C1113.6,351.6,1112.4,352,1111.2,352z M1103.9,344.1l5.4,5.6c0.7,0.7,1.3,1,1.8,1
			c0.9,0,1.8-0.4,2.8-1.1l7.5-6.1c0.9-1,1.4-1.9,1.4-2.7c0-0.4-0.4-1.4-2.7-3.2l-0.1-0.1l-0.2-0.2l-2.1-1.8v-60.1
			c0-2-0.4-2.5-0.6-2.5c-0.1,0-0.4,0.1-0.8,0.4l0,0l-10.5,6.9h-0.1c-0.2,0.1-0.4,0.2-0.6,0.2c-0.6,0-1.3-0.3-2.1-0.8
			c-3.1-1.8-6.4-3.3-9.9-4.4c-3.5-1.1-7.7-1.6-12.5-1.6c-5.2,0-10.1,1-14.7,2.8c-4.6,1.9-9.1,4.6-13.5,8.1
			c-5.3,4.3-9.7,9.3-13.1,14.9c-3.4,5.6-5.1,11.3-5.1,16.8c0,10.3,3.7,18.4,10.9,24.3c7.3,5.9,16.9,8.9,28.8,8.9
			c4.2,0,8.9-1.2,14-3.4c5.1-2.3,10.2-5.2,15.1-8.7l1-0.7V344.1z M1082.1,340.6c-4.4,0-8.8-0.8-13-2.5c-4.3-1.7-8.2-4-11.7-7
			c-3.5-3-6.3-6.5-8.3-10.4c-2-3.9-3.1-7.9-3.1-12.1c0-8.5,2.6-14.8,7.7-18.9c5.1-4,12.2-6.1,21.3-6.1c4,0,8.1,1,12.2,2.9
			c4,1.9,7.6,4.4,10.7,7.5c0.2,0.2,0.5,0.3,0.8,0.3c0.2,0,0.7-0.1,1.6-0.6l0,0c0.8-0.4,1.4-0.6,1.9-0.6c0.6,0,1.1,0.3,1.6,1l0.1,0.2
			v34.6l-0.1,0.2c-2.3,3.4-5.2,6.3-8.8,8.4C1091.4,339.5,1087.1,340.6,1082.1,340.6z M1075.1,284.9c-8.8,0-15.7,2-20.5,5.8
			c-4.8,3.8-7.2,9.9-7.2,17.9c0,4,1,7.9,2.9,11.5c1.9,3.7,4.6,7.1,8,10c3.4,2.9,7.2,5.2,11.3,6.8c4.1,1.6,8.3,2.4,12.6,2.4
			c4.8,0,8.9-1,12.3-3.1c3.4-2,6.1-4.7,8.3-7.9v-33.8c-0.2-0.2-0.3-0.3-0.4-0.3c-0.1,0-0.5,0-1.3,0.4c-0.9,0.5-1.6,0.8-2.2,0.8
			c-0.6,0-1.2-0.2-1.7-0.7c-3-3-6.4-5.4-10.3-7.2C1082.9,285.8,1078.9,284.9,1075.1,284.9z"/>
	</g>
	<g>
		<path class="st0" d="M1208.8,338.8c2.1,1.2,3.2,2.5,3.2,3.9c0,0.9-0.5,2-1.6,3.2l-5.8,6.5c-0.6,0.7-1.3,1.1-2.3,1.1
			c-0.8,0-1.9-0.4-3.2-1.1l-17.2-8.9c-1.2-0.6-1.8-1.2-1.8-1.9c0-0.4,0.3-0.8,0.9-1.4l6.7-5.4v-34.2c0-5-1.1-9.1-3.3-12.4
			c-2.2-3.2-5.8-4.8-10.9-4.8c-7.9,0-15.1,2-21.4,6.1v45.6l6,3.3c2.1,1.2,3.2,2.5,3.2,3.9c0,0.9-0.5,2-1.6,3.2l-5.8,6.5
			c-0.6,0.7-1.3,1.1-2.3,1.1c-0.8,0-1.9-0.4-3.2-1.1l-17.2-8.9c-1.2-0.6-1.8-1.2-1.8-1.9c0-0.4,0.3-0.8,0.9-1.4l6.7-5.4v-44.2
			l-5.4-5.1c-0.9-0.9-1.4-1.9-1.4-2.8c0-0.5,0.4-1.1,1.1-1.8l5.8-6c0.8-0.8,1.6-1.2,2.3-1.2c1.5,0,3,0.5,4.6,1.6l4.7,2.8
			c1.9,1.1,3,2.5,3.3,4.2c8.1-4.8,16.5-7.2,25.4-7.2c8.9,0,15.3,2.4,19.4,7.3c4,4.8,6,11.4,6,19.7v34L1208.8,338.8z"/>
		<path class="st0" d="M1202.3,354c-0.9,0-2.1-0.4-3.5-1.1l-17.2-8.9c-1.4-0.7-2.1-1.5-2.1-2.5c0-0.5,0.3-1.1,1.1-1.9l0,0l6.4-5.2
			v-33.9c0-4.9-1.1-8.9-3.2-12c-2.1-3-5.6-4.5-10.3-4.5c-7.7,0-14.6,2-20.7,5.8v44.8l5.6,3.1c2.3,1.3,3.5,2.8,3.5,4.4
			c0,1.1-0.6,2.3-1.7,3.6l-5.8,6.5c-0.7,0.8-1.6,1.3-2.8,1.3c-0.9,0-2.1-0.4-3.5-1.1l-17.2-8.9c-1.4-0.7-2.1-1.5-2.1-2.5
			c0-0.5,0.3-1.1,1.1-1.9l0,0l6.4-5.2v-43.6l-5.2-4.9c-1.1-1.1-1.6-2.1-1.6-3.3c0-0.6,0.4-1.4,1.2-2.2l5.8-6
			c0.9-0.9,1.9-1.4,2.7-1.4c1.6,0,3.3,0.6,4.9,1.7l4.7,2.8c1.7,1,2.9,2.2,3.4,3.8c7.9-4.5,16.3-6.9,25-6.9c9,0,15.7,2.5,19.9,7.5
			c4.1,4.9,6.2,11.7,6.2,20.1v33.6l5.6,3.1c2.3,1.3,3.5,2.8,3.5,4.4c0,1.1-0.6,2.3-1.7,3.6l-5.8,6.5
			C1204.4,353.5,1203.4,354,1202.3,354z M1181.5,340.5c-0.7,0.7-0.7,0.9-0.7,0.9c0,0.5,0.8,1,1.4,1.4l17.2,8.9c1.2,0.6,2.2,1,2.9,1
			c0.7,0,1.3-0.3,1.8-0.8l0,0l5.8-6.5c0.9-1,1.4-2,1.4-2.7c0-1.1-1-2.3-2.8-3.3l-6.3-3.5v-34.4c0-8.1-2-14.6-5.9-19.3
			c-3.9-4.7-10.2-7-18.9-7c-8.7,0-17.2,2.4-25.1,7.1l-0.8,0.5l-0.2-0.9c-0.3-1.6-1.3-2.8-3-3.8l-4.8-2.8c-1.4-1-2.8-1.5-4.2-1.5
			c-0.5,0-1.1,0.4-1.8,1l-5.8,5.9c-0.8,0.8-0.9,1.2-0.9,1.3c0,0.8,0.4,1.5,1.2,2.3l5.6,5.3v44.7l-6.9,5.6c-0.7,0.7-0.7,0.9-0.7,0.9
			c0,0.5,0.8,1,1.4,1.4l17.2,8.9c1.2,0.6,2.2,1,2.9,1c0.7,0,1.3-0.3,1.8-0.8l0,0l5.8-6.5c0.9-1,1.4-2,1.4-2.7c0-1.1-1-2.3-2.8-3.3
			l-6.3-3.5V289l0.3-0.2c6.4-4.1,13.7-6.2,21.7-6.2c5.2,0,9.1,1.7,11.4,5.1c2.3,3.3,3.4,7.6,3.4,12.7v34.5L1181.5,340.5z"/>
	</g>
	<g>
		<path class="st0" d="M1294.8,285.1c7.9,7.4,11.9,16.7,11.9,28c0,5.3-1.2,10.3-3.5,15.1c-2.3,4.8-5.6,9-9.6,12.6
			c-4.1,3.6-8.9,6.5-14.3,8.5c-5.4,2-11.2,3.1-17.3,3.1c-13.7,0-24.4-3.7-32.3-11.2c-7.9-7.5-11.8-16.8-11.8-28
			c0-5.3,1.1-10.3,3.4-15.1c2.3-4.8,5.5-9,9.5-12.6c4.1-3.6,8.9-6.4,14.3-8.4c5.4-2,11.1-3,17.1-3
			C1276,273.9,1286.9,277.6,1294.8,285.1z M1238.7,290.1c-4.5,5.1-6.7,12-6.7,20.8c0,4.1,1.1,8.1,3.2,12.2c2.1,4,4.9,7.7,8.4,10.9
			c3.5,3.2,7.4,5.7,11.7,7.5c4.3,1.8,8.6,2.7,12.8,2.7c8.3,0,14.6-2.4,19-7.3c4.4-4.8,6.6-10.9,6.6-18.1c0-4.1-1-8.3-3-12.6
			c-2-4.3-4.7-8.3-8.2-11.9c-3.5-3.6-7.4-6.5-11.6-8.6c-4.2-2.1-8.4-3.2-12.6-3.2C1249.7,282.5,1243.2,285.1,1238.7,290.1z"/>
		<path class="st0" d="M1262.1,352.9c-13.8,0-24.8-3.8-32.8-11.4c-8-7.6-12-17.2-12-28.5c0-5.3,1.2-10.5,3.5-15.3
			c2.3-4.8,5.6-9.2,9.7-12.8c4.1-3.7,9-6.5,14.5-8.5c5.5-2,11.3-3,17.3-3c13.9,0,25,3.8,33,11.3c8,7.5,12.1,17.1,12.1,28.4
			c0,5.3-1.2,10.5-3.6,15.4c-2.4,4.8-5.7,9.2-9.8,12.8c-4.1,3.7-9,6.6-14.5,8.6C1274.1,351.9,1268.2,352.9,1262.1,352.9z
			 M1262.3,274.6c-5.9,0-11.5,1-16.9,2.9c-5.3,2-10.1,4.7-14.1,8.3c-4,3.5-7.2,7.7-9.4,12.4c-2.2,4.7-3.4,9.7-3.4,14.8
			c0,11,3.9,20.3,11.6,27.6c7.7,7.3,18.5,11,31.9,11c6,0,11.7-1,17-3c5.3-2,10.1-4.8,14.1-8.4c4-3.5,7.2-7.7,9.5-12.4
			c2.3-4.7,3.4-9.7,3.4-14.8c0-11-3.9-20.2-11.7-27.5C1286.6,278.3,1275.8,274.6,1262.3,274.6z M1268,344.8c-4.3,0-8.7-0.9-13-2.8
			c-4.4-1.8-8.4-4.4-11.9-7.7c-3.5-3.2-6.4-7-8.5-11c-2.1-4.1-3.2-8.3-3.2-12.5c0-8.9,2.3-16,6.9-21.2c4.6-5.2,11.3-7.8,20-7.8
			c4.3,0,8.6,1.1,12.9,3.2c4.2,2.1,8.2,5.1,11.7,8.7c3.5,3.7,6.3,7.7,8.4,12.1c2,4.4,3,8.7,3,12.9c0,7.4-2.3,13.6-6.7,18.6
			C1283,342.3,1276.5,344.8,1268,344.8z M1258.2,283.2c-8.3,0-14.7,2.5-19.1,7.4c-4.4,4.9-6.6,11.8-6.6,20.3c0,4,1,8,3.1,11.9
			c2.1,4,4.8,7.5,8.3,10.7c3.4,3.1,7.3,5.6,11.6,7.4c4.2,1.8,8.4,2.7,12.5,2.7c8.1,0,14.3-2.4,18.5-7.1c4.3-4.7,6.4-10.7,6.4-17.7
			c0-4-1-8.1-2.9-12.4c-1.9-4.2-4.7-8.2-8.1-11.7c-3.4-3.6-7.3-6.4-11.4-8.5C1266.5,284.2,1262.3,283.2,1258.2,283.2z"/>
	</g>
</g>
<g>
	<g>
		<g>
			<circle class="st1" cx="203.5" cy="202.5" r="199"/>
			<path class="st2" d="M203.5,402C93.5,402,4,312.5,4,202.5C4,92.5,93.5,3,203.5,3C313.5,3,403,92.5,403,202.5
				C403,312.5,313.5,402,203.5,402z M203.5,4C94.1,4,5,93.1,5,202.5C5,311.9,94.1,401,203.5,401c109.4,0,198.5-89,198.5-198.5
				C402,93.1,312.9,4,203.5,4z"/>
		</g>
		<g id="XMLID_1_">
			<g>
				<g>
					<path class="st3" d="M392.6,197.4c0.1,1.8,0.1,3.6,0.1,5.3c0,9.6-0.7,18.9-2.1,28.1L373,228c1.3-8.4,1.9-16.9,1.9-25.6
						c0-1.7,0-3.3-0.1-5H392.6z"/>
				</g>
				<g>
					<path class="st4" d="M392.6,197.4h-17.8c-0.3-9.7-1.4-19.3-3.2-28.5l17.3-4C391,175.5,392.3,186.3,392.6,197.4z"/>
				</g>
				<g>
					<path class="st4" d="M373,228l17.6,2.9c-1.7,11.3-4.3,22.2-7.9,32.8l-16.8-6.3C369.1,247.9,371.5,238.1,373,228z"/>
				</g>
				<g>
					<path class="st3" d="M388.9,164.9l-17.3,4c-2-10.2-4.9-20-8.7-29.4l16.4-6.8C383.4,143,386.6,153.8,388.9,164.9z"/>
				</g>
				<g>
					<path class="st3" d="M365.9,257.4l16.8,6.3c-3.5,10.2-7.7,19.9-12.8,29.2l-16.1-8.3C358.6,276,362.6,266.9,365.9,257.4z"/>
				</g>
				<g>
					<path class="st4" d="M379.3,132.7l-16.4,6.8c-3.7-9.3-8.1-18.2-13.3-26.6l15.1-9.2C370.4,112.9,375.3,122.6,379.3,132.7z"/>
				</g>
				<g>
					<path class="st5" d="M374.8,197.4c0.1,1.6,0.1,3.3,0.1,5c0,8.7-0.7,17.3-1.9,25.6l-16-2.6c1.2-7.8,1.8-15.8,1.8-23.9
						c0-1.4,0-2.7-0.1-4.1H374.8z"/>
				</g>
				<g>
					<path class="st4" d="M374.8,197.4h-16c-0.2-8.5-1.1-16.8-2.6-25l15.5-3.6C373.4,178.2,374.5,187.7,374.8,197.4z"/>
				</g>
				<g>
					<path class="st6" d="M357,225.4l16,2.6c-1.5,10.1-3.9,19.9-7.1,29.4l-15.3-5.7C353.5,243.3,355.6,234.5,357,225.4z"/>
				</g>
				<g>
					<path class="st6" d="M371.6,168.9l-15.5,3.6c-1.8-9.3-4.3-18.3-7.7-27l14.5-6C366.7,148.9,369.6,158.7,371.6,168.9z"/>
				</g>
				<g>
					<path class="st4" d="M353.9,284.6l16.1,8.3c-5.3,9.8-11.4,19-18.3,27.7l-14.1-11.5C343.7,301.4,349.1,293.2,353.9,284.6z"/>
				</g>
				<g>
					<path class="st4" d="M350.6,251.7l15.3,5.7c-3.2,9.5-7.2,18.6-12,27.2l-14.5-7.5C343.8,269,347.6,260.6,350.6,251.7z"/>
				</g>
				<g>
					<path class="st3" d="M364.8,103.7l-15.1,9.2c-5.4-8.7-11.5-16.9-18.3-24.5l13.3-11.8C352.1,85.1,358.8,94.1,364.8,103.7z"/>
				</g>
				<g>
					<path class="st5" d="M362.9,139.5l-14.5,6c-3.3-8.6-7.3-16.8-12-24.6l13.2-8C354.8,121.3,359.3,130.2,362.9,139.5z"/>
				</g>
				<g>
					<path class="st7" d="M356.1,172.5c1.5,8.1,2.4,16.4,2.6,25c0,1.4,0.1,2.7,0.1,4.1c0,8.1-0.6,16.1-1.8,23.9
						c-1.4,9-3.5,17.8-6.4,26.3c-3,8.8-6.8,17.3-11.3,25.4c-4.2,7.6-9.1,14.8-14.4,21.6c-5.5,6.9-11.6,13.4-18.3,19.3
						c-7.1,6.4-14.9,12.1-23.1,17.1v0c-7.1,4.3-14.6,8.1-22.4,11.2c-8.8,3.5-17.9,6.3-27.4,8.2c-8.4,1.7-17,2.7-25.9,3
						c-1.7,0.1-3.4,0.1-5,0.1c-7.6,0-15.1-0.5-22.5-1.6c-9.3-1.3-18.3-3.5-26.9-6.4c-8.6-2.9-16.9-6.5-24.8-10.8
						c-8.1-4.4-15.8-9.5-23-15.3c-7.3-5.8-14.1-12.3-20.2-19.3c-5.8-6.6-11-13.7-15.6-21.2c-4.8-7.8-9-16.1-12.3-24.8
						c-3.3-8.4-5.8-17.2-7.6-26.2c-1.7-8.7-2.7-17.7-2.9-26.9c0-1.2,0-2.4,0-3.6c0-8.5,0.7-16.8,2-24.9c1.4-8.5,3.4-16.7,6.1-24.7
						c2.9-8.8,6.6-17.2,11-25.2c4.7-8.6,10.2-16.7,16.4-24.2c5.6-6.8,11.7-13.1,18.3-18.8c6.8-5.9,14-11.2,21.8-15.8
						c7.8-4.7,16-8.7,24.7-12c8.1-3.1,16.6-5.6,25.3-7.3c8.7-1.7,17.7-2.7,26.9-2.9c1.2,0,2.5,0,3.7,0c8,0,15.8,0.6,23.5,1.8
						c9,1.4,17.7,3.5,26.2,6.3c8.2,2.7,16.1,6.2,23.6,10.2c8.5,4.5,16.5,9.8,24,15.8c7.2,5.7,13.9,12.1,19.9,19
						c6.1,6.9,11.6,14.4,16.4,22.4c4.7,7.8,8.7,16,12,24.6C351.8,154.1,354.4,163.1,356.1,172.5z"/>
				</g>
				<g>
					<path class="st5" d="M339.3,277.1l14.5,7.5c-4.7,8.6-10.2,16.8-16.3,24.5l-12.7-10.4C330.3,291.9,335.1,284.7,339.3,277.1z"/>
				</g>
				<g>
					<path class="st3" d="M337.6,309.1l14.1,11.5c-6.7,8.5-14.2,16.4-22.3,23.6l-12-13.8C324.7,323.8,331.4,316.7,337.6,309.1z"/>
				</g>
				<g>
					<path class="st4" d="M349.6,112.9l-13.2,8c-4.8-8-10.3-15.5-16.4-22.4l11.4-10.1C338.2,96,344.3,104.2,349.6,112.9z"/>
				</g>
				<g>
					<path class="st4" d="M344.6,76.7l-13.3,11.8c-6.8-7.6-14.2-14.5-22.2-20.8L320,53.6C328.9,60.5,337.1,68.3,344.6,76.7z"/>
				</g>
				<g>
					<path class="st6" d="M324.9,298.7l12.7,10.4c-6.1,7.7-12.9,14.8-20.2,21.3L306.6,318C313.2,312.1,319.4,305.6,324.9,298.7z"/>
				</g>
				<g>
					<path class="st6" d="M331.4,88.4L320,98.5c-6.1-6.9-12.7-13.3-19.9-19l9.1-11.8C317.2,73.9,324.6,80.9,331.4,88.4z"/>
				</g>
				<g>
					<path class="st4" d="M317.4,330.3l12,13.8c-8.4,7.5-17.5,14.3-27.1,20.2l-0.7-1.1l-9.3-14.4
						C301.2,343.4,309.6,337.2,317.4,330.3z"/>
				</g>
				<g>
					<path class="st3" d="M320,53.5L320,53.5l-10.8,14.1c-8.1-6.3-16.8-12-26-16.8l8.7-15.6C301.8,40.6,311.2,46.7,320,53.5z"/>
				</g>
				<g>
					<path class="st4" d="M306.6,318l10.7,12.3c-7.7,6.9-16.1,13.1-25,18.5l-8.8-13.7v0C291.7,330.1,299.5,324.4,306.6,318z"/>
				</g>
				<g>
					<path class="st5" d="M309.2,67.6l-9.1,11.8c-7.5-6-15.5-11.3-24-15.8l7.2-12.8C292.4,55.7,301.1,61.3,309.2,67.6z"/>
				</g>
				<g>
					<path class="st3" d="M301.6,363.2l0.7,1.1C293,370,283.2,375,272.9,379l-6.3-17.5c9-3.5,17.6-7.8,25.7-12.8L301.6,363.2z"/>
				</g>
				<g>
					<path class="st5" d="M283.5,335.1l8.8,13.7c-8.2,4.9-16.8,9.2-25.7,12.8l-5.5-15.3C268.9,343.2,276.4,339.4,283.5,335.1z"/>
				</g>
				<g>
					<path class="st4" d="M291.9,35.3l-8.7,15.6c-8.4-4.4-17.2-8.1-26.3-11.1l5.5-17.1C272.6,26.1,282.5,30.3,291.9,35.3z"/>
				</g>
				<g>
					<path class="st4" d="M283.2,50.9L276,63.7c-7.5-4-15.4-7.4-23.6-10.2l4.4-13.8C266,42.8,274.8,46.5,283.2,50.9z"/>
				</g>
				<g>
					<path class="st4" d="M266.6,361.6l6.3,17.5c-10.1,4-20.5,7.1-31.4,9.4l-4.2-18.2C247.4,368.1,257.2,365.3,266.6,361.6z"/>
				</g>
				<g>
					<path class="st6" d="M261.1,346.3l5.5,15.3c-9.4,3.7-19.2,6.6-29.3,8.6l-3.6-15.7C243.2,352.6,252.3,349.8,261.1,346.3z"/>
				</g>
				<g>
					<path class="st3" d="M262.4,22.7l-5.5,17.1c-9.2-3-18.7-5.2-28.4-6.6l2.7-17.8C241.9,16.9,252.3,19.4,262.4,22.7z"/>
				</g>
				<g>
					<path class="st6" d="M256.9,39.8l-4.4,13.8c-8.4-2.8-17.2-4.9-26.2-6.3l2.2-14.1C238.2,34.6,247.7,36.8,256.9,39.8z"/>
				</g>
				<g>
					<path class="st3" d="M237.3,370.1l4.2,18.2c-10.9,2.2-22.2,3.6-33.7,3.8v-18.8C217.9,373.1,227.8,372.1,237.3,370.1z"/>
				</g>
				<g>
					<path class="st4" d="M233.7,354.5l3.6,15.7c-9.6,1.9-19.4,3-29.5,3.2v-15.8v-0.1C216.7,357.2,225.3,356.2,233.7,354.5z"/>
				</g>
				<g>
					<path class="st4" d="M231.2,15.3l-2.7,17.8c-8-1.2-16.2-1.8-24.6-1.8c-1.6,0-3.2,0-4.8,0.1V13.3c1.3,0,2.7-0.1,4.1-0.1
						C212.7,13.3,222.1,14,231.2,15.3z"/>
				</g>
				<g>
					<path class="st5" d="M228.5,33.2l-2.2,14.1c-7.7-1.2-15.5-1.8-23.5-1.8c-1.2,0-2.5,0-3.7,0v0v-14c1.6-0.1,3.2-0.1,4.8-0.1
						C212.2,31.4,220.4,32,228.5,33.2z"/>
				</g>
				<g>
					<path class="st4" d="M207.8,373.4v18.8c-1.6,0-3.1,0.1-4.7,0.1c-9.7,0-19.3-0.7-28.6-2.2l3.2-18.7c8.5,1.3,17.3,2,26.2,2
						C205.2,373.4,206.5,373.4,207.8,373.4z"/>
				</g>
				<g>
					<path class="st5" d="M207.8,357.5v15.8c-1.3,0-2.6,0.1-4,0.1c-8.9,0-17.6-0.7-26.2-2l2.6-15.5c7.3,1.1,14.8,1.6,22.5,1.6
						C204.5,357.5,206.2,357.5,207.8,357.5L207.8,357.5z"/>
				</g>
				<g>
					<path class="st4" d="M199.1,45.5L199.1,45.5c-9.2,0.3-18.1,1.3-26.9,3L169,35c9.8-2,19.8-3.2,30.1-3.5V45.5z"/>
				</g>
				<g>
					<path class="st3" d="M199.1,13.3v18.2c-10.3,0.3-20.4,1.5-30.1,3.5l-4.3-17.8C175.8,14.9,187.4,13.6,199.1,13.3z"/>
				</g>
				<g>
					<path class="st6" d="M180.3,355.9l-2.6,15.5c-10.1-1.6-20-4-29.4-7.2l5.1-14.6C162.1,352.5,171.1,354.6,180.3,355.9z"/>
				</g>
				<g>
					<path class="st3" d="M177.7,371.4l-3.2,18.7c-11.2-1.7-22.1-4.4-32.5-7.9l6.3-18C157.7,367.4,167.6,369.9,177.7,371.4z"/>
				</g>
				<g>
					<path class="st6" d="M169,35l3.3,13.5c-8.7,1.7-17.2,4.2-25.3,7.3l-5.7-12.5C150.2,39.7,159.4,36.9,169,35z"/>
				</g>
				<g>
					<path class="st4" d="M164.7,17.2L169,35c-9.6,2-18.8,4.8-27.7,8.3l-7.6-16.8C143.6,22.5,154,19.4,164.7,17.2z"/>
				</g>
				<g>
					<path class="st4" d="M153.4,349.6l-5.1,14.6c-9.4-3.2-18.3-7.2-26.9-11.9l7.2-13.5C136.5,343.1,144.8,346.7,153.4,349.6z"/>
				</g>
				<g>
					<path class="st4" d="M148.3,364.2l-6.3,18c-10.3-3.5-20.2-7.9-29.6-13l9-16.9C130,357,138.9,361,148.3,364.2z"/>
				</g>
				<g>
					<path class="st5" d="M141.3,43.2l5.7,12.5c-8.6,3.3-16.9,7.3-24.7,12v0L115,56.3C123.4,51.2,132.1,46.8,141.3,43.2z"/>
				</g>
				<g>
					<path class="st3" d="M133.7,26.4l7.6,16.8c-9.2,3.6-17.9,8-26.2,13l-9.9-15.7C114.2,35.1,123.7,30.4,133.7,26.4z"/>
				</g>
				<g>
					<path class="st5" d="M128.6,338.8l-7.2,13.5c-8.8-4.9-17.1-10.5-24.9-16.7l9.1-12C112.8,329.3,120.5,334.4,128.6,338.8z"/>
				</g>
				<g>
					<path class="st4" d="M122.3,67.8L122.3,67.8c-7.7,4.7-15,10-21.8,15.8l0,0l-8.9-10.3c7.3-6.3,15.1-12.1,23.4-17.1L122.3,67.8z"
						/>
				</g>
				<g>
					<path class="st3" d="M121.4,352.3l-9,16.9c-9.7-5.3-18.9-11.4-27.4-18.3l11.6-15.3C104.3,341.8,112.6,347.4,121.4,352.3z"/>
				</g>
				<g>
					<path class="st4" d="M105.1,40.6l9.9,15.7c-8.3,5-16.1,10.8-23.4,17.1L79.4,59.3C87.4,52.3,96,46.1,105.1,40.6z"/>
				</g>
				<g>
					<path class="st6" d="M105.6,323.5l-9.1,12c-7.9-6.4-15.2-13.4-21.9-21.1l10.3-9.9l0.4-0.4C91.5,311.2,98.3,317.7,105.6,323.5z"
						/>
				</g>
				<g>
					<path class="st6" d="M100.6,83.6L100.6,83.6c-6.6,5.7-12.8,12-18.3,18.8l-0.7-0.6l-10-7.8c6.1-7.5,12.9-14.4,20.1-20.8
						L100.6,83.6z"/>
				</g>
				<g>
					<path class="st4" d="M96.5,335.5l-11.6,15.3c-8.7-7-16.8-14.7-24.1-23.1l13.9-13.4C81.3,322.1,88.6,329.2,96.5,335.5z"/>
				</g>
				<g>
					<path class="st3" d="M79.4,59.3l12.2,14.1c-7.3,6.3-14,13.3-20.1,20.8L56.6,82.6C63.6,74.2,71.2,66.4,79.4,59.3z"/>
				</g>
				<g>
					<path class="st4" d="M85.3,304.2l-0.4,0.4l-10.3,9.9c-6.4-7.4-12.2-15.4-17.3-23.8l12.4-7.7C74.3,290.5,79.6,297.6,85.3,304.2z
						"/>
				</g>
				<g>
					<path class="st5" d="M81.5,101.9l0.7,0.6c-6.2,7.5-11.7,15.6-16.4,24.2l-11.6-7.2c5-9,10.8-17.5,17.2-25.4L81.5,101.9z"/>
				</g>
				<g>
					<path class="st3" d="M74.7,314.4l-13.9,13.4c-7.4-8.4-14-17.4-19.8-27l16.4-10.2C62.5,299.1,68.3,307,74.7,314.4z"/>
				</g>
				<g>
					<path class="st4" d="M56.6,82.6l14.9,11.5c-6.5,7.9-12.3,16.4-17.2,25.4l-16.1-10C43.6,100,49.8,91,56.6,82.6z"/>
				</g>
				<g>
					<path class="st5" d="M69.7,283l-12.4,7.7c-5.2-8.6-9.6-17.6-13.2-27l13.2-5.4C60.8,266.8,64.9,275.1,69.7,283z"/>
				</g>
				<g>
					<path class="st4" d="M54.3,119.5l11.6,7.2c-4.4,8-8.1,16.4-11,25.2l-12.6-5.3C45.4,137.2,49.5,128.1,54.3,119.5z"/>
				</g>
				<g>
					<path class="st6" d="M57.4,258.2l-13.2,5.4c-3.5-9.2-6.3-18.9-8.2-28.8l13.8-2.9C51.5,241,54.1,249.8,57.4,258.2z"/>
				</g>
				<g>
					<path class="st4" d="M57.4,290.7L41,300.8c-5.7-9.4-10.7-19.4-14.7-29.9l17.8-7.3C47.8,273,52.2,282.1,57.4,290.7z"/>
				</g>
				<g>
					<path class="st6" d="M42.2,146.6l12.6,5.3c-2.7,8-4.7,16.2-6.1,24.7l-13.7-1.8C36.6,165.2,39,155.7,42.2,146.6z"/>
				</g>
				<g>
					<path class="st3" d="M38.2,109.5l16.1,10c-4.8,8.6-8.8,17.7-12.1,27.1l-17.6-7.4h0C28.3,128.9,32.8,118.9,38.2,109.5z"/>
				</g>
				<g>
					<path class="st4" d="M49.8,232l-13.8,2.9c-1.9-9.7-2.9-19.6-3.1-29.7h13.9h0C47,214.3,48,223.2,49.8,232z"/>
				</g>
				<g>
					<path class="st5" d="M35.1,174.9l13.7,1.8c-1.3,8.1-2,16.4-2,24.9c0,1.2,0,2.4,0,3.6h0H32.9c0-0.9,0-1.8,0-2.7
						C32.9,193,33.6,183.9,35.1,174.9z"/>
				</g>
				<g>
					<path class="st3" d="M44.2,263.6L26.3,271c-4-10.3-7.1-21.1-9.2-32.2l18.9-3.9C37.8,244.7,40.6,254.4,44.2,263.6z"/>
				</g>
				<g>
					<path class="st4" d="M24.6,139.2l17.6,7.4c-3.1,9.1-5.5,18.5-7.1,28.3l-19-2.4C17.9,161,20.8,149.9,24.6,139.2L24.6,139.2z"/>
				</g>
				<g>
					<path class="st4" d="M35.9,234.8l-18.9,3.9c-2.1-10.9-3.3-22.2-3.4-33.7h19.2C33.1,215.2,34.1,225.2,35.9,234.8z"/>
				</g>
				<g>
					<path class="st3" d="M16.1,172.5l19,2.4c-1.4,9-2.2,18.2-2.2,27.5c0,0.9,0,1.8,0,2.7H13.7c0-0.8,0-1.5,0-2.3
						C13.7,192.5,14.5,182.3,16.1,172.5z"/>
				</g>
			</g>
			<path class="st8" d="M203.9,374.4c-8.8,0-17.6-0.7-26.3-2c-10-1.5-20-4-29.6-7.3c-9.3-3.2-18.4-7.2-27-12
				c-8.8-4.8-17.2-10.5-25-16.8c-7.9-6.4-15.3-13.5-22-21.2c-6.5-7.5-12.3-15.5-17.4-23.9c-5.2-8.7-9.7-17.8-13.3-27.2
				c-3.6-9.4-6.4-19.1-8.3-28.9c-1.9-9.8-2.9-19.8-3.1-29.9c0-0.9,0-1.8,0-2.7c0-9.3,0.7-18.6,2.2-27.7c1.6-9.6,4-19.2,7.1-28.4
				c3.2-9.4,7.3-18.6,12.2-27.3c5-9,10.8-17.5,17.3-25.5C76.9,86,83.7,79,91,72.6c7.3-6.4,15.2-12.2,23.5-17.2
				c8.4-5.1,17.3-9.5,26.4-13.1c9-3.6,18.4-6.3,27.9-8.3c10-2.1,20.2-3.2,30.3-3.5c1.5,0,3.1-0.1,4.8-0.1c8.3,0,16.6,0.6,24.7,1.8
				c9.6,1.4,19.3,3.6,28.6,6.7c9.1,3,18,6.7,26.5,11.2c9.1,4.8,17.9,10.5,26.1,16.9c8,6.3,15.5,13.3,22.3,20.9
				c6.8,7.6,13,15.9,18.4,24.6c5.2,8.5,9.7,17.5,13.4,26.7c3.8,9.6,6.7,19.5,8.7,29.6c1.9,9.4,3,19,3.2,28.7c0.1,1.5,0.1,3.1,0.1,5
				c0,8.6-0.6,17.3-1.9,25.8c-1.5,10-3.9,19.9-7.2,29.5c-3.2,9.4-7.3,18.6-12.1,27.4c-4.7,8.6-10.3,16.9-16.4,24.6
				c-6.1,7.7-12.9,14.9-20.3,21.4c-7.8,6.9-16.2,13.1-25.2,18.6c-8.2,5-16.9,9.3-25.9,12.8c-9.5,3.7-19.4,6.7-29.4,8.6
				c-9.7,1.9-19.7,3-29.6,3.2C206.5,374.4,205.2,374.4,203.9,374.4z M203.9,32.4c-1.7,0-3.3,0-4.7,0.1c-10,0.3-20.1,1.4-29.9,3.5
				c-9.4,1.9-18.6,4.7-27.5,8.2c-9,3.5-17.8,7.9-26.1,13c-8.2,5-16,10.7-23.2,17c-7.2,6.3-14,13.2-20,20.6
				c-6.5,7.9-12.2,16.3-17.1,25.2c-4.8,8.6-8.8,17.7-12,27c-3.2,9.1-5.5,18.6-7.1,28.1c-1.5,9-2.2,18.2-2.2,27.4c0,0.9,0,1.8,0,2.7
				c0.2,10,1.2,19.9,3,29.6c1.9,9.7,4.6,19.3,8.2,28.6c3.6,9.3,8,18.3,13.1,26.9c5,8.3,10.8,16.3,17.2,23.6
				c6.6,7.6,13.9,14.7,21.7,21c7.7,6.2,16.1,11.8,24.7,16.6c8.5,4.7,17.5,8.7,26.7,11.9c9.5,3.3,19.3,5.7,29.2,7.2
				c9.9,1.5,20,2.2,30,1.9c9.9-0.2,19.7-1.3,29.3-3.2c9.9-2,19.7-4.8,29.1-8.5c8.9-3.5,17.5-7.8,25.6-12.7
				c8.8-5.4,17.2-11.5,24.9-18.4c7.3-6.5,14.1-13.6,20.1-21.2c6.1-7.6,11.5-15.8,16.2-24.3c4.7-8.6,8.8-17.7,11.9-27.1
				c3.2-9.5,5.6-19.3,7.1-29.2c1.3-8.4,1.9-16.9,1.9-25.5c0-1.9,0-3.5-0.1-4.9c-0.3-9.5-1.3-19.1-3.2-28.4c-2-10-4.9-19.8-8.6-29.3
				c-3.6-9.1-8.1-18-13.2-26.4c-5.3-8.6-11.4-16.8-18.1-24.3c-6.7-7.5-14.1-14.5-22.1-20.7c-8.1-6.3-16.8-12-25.8-16.7
				c-8.4-4.4-17.2-8.1-26.2-11c-9.2-3-18.7-5.2-28.2-6.6C220.3,33,212.1,32.4,203.9,32.4z"/>
		</g>
		<g>
			<circle class="st9" cx="202.5" cy="201.5" r="142.5"/>
			<path class="st8" d="M202.2,345.7c-79.4,0-144-64.6-144-144c0-79.4,64.6-144,144-144c79.4,0,144,64.6,144,144
				C346.1,281.1,281.6,345.7,202.2,345.7z M202.2,60.8c-77.7,0-140.9,63.2-140.9,140.9c0,77.7,63.2,140.9,140.9,140.9
				c77.7,0,140.9-63.2,140.9-140.9C343.1,124,279.9,60.8,202.2,60.8z"/>
		</g>
		<path class="st8" d="M203.1,345.1c-79.3,0-143.9-64.5-143.9-143.9c0-79.3,64.5-143.9,143.9-143.9c79.3,0,143.9,64.5,143.9,143.9
			C347,280.5,282.5,345.1,203.1,345.1z M203.1,61.4c-77.1,0-139.8,62.7-139.8,139.8C63.3,278.3,126,341,203.1,341
			S343,278.3,343,201.2C343,124.1,280.2,61.4,203.1,61.4z"/>
		<g>
			<polyline class="st10" points="154.8,180.7 100.6,101.9 182.4,152.5 			"/>
		</g>
		<g>
			<polyline class="st11" points="178.4,154.5 115.6,116.2 156.7,176.7 			"/>
		</g>
		<g>
			<polyline class="st10" points="174.2,157 132.5,132.7 159.1,172.5 			"/>
		</g>
		<g>
			<polyline class="st12" points="161.8,168.6 142.2,142.1 170.9,159.4 			"/>
		</g>
		<g>
			<polyline class="st10" points="222.9,152.2 301.2,97.2 251.4,179.5 			"/>
		</g>
		<g>
			<polyline class="st11" points="249.4,175.5 287,112.3 227,154 			"/>
		</g>
		<g>
			<polyline class="st10" points="246.9,171.4 270.7,129.4 231.2,156.4 			"/>
		</g>
		<g>
			<polyline class="st12" points="235.1,159 261.6,139.2 244.4,168 			"/>
		</g>
		<g>
			<polyline class="st13" points="155,221.1 60.8,204.5 154.3,181.6 			"/>
		</g>
		<g>
			<polyline class="st14" points="152.8,185.9 81.5,203.8 153.4,217 			"/>
		</g>
		<g>
			<polyline class="st13" points="151.7,190.6 105.1,203.3 152.1,212.3 			"/>
		</g>
		<g>
			<polyline class="st14" points="151.3,207.6 118.9,203.2 151.1,194.7 			"/>
		</g>
		<g>
			<polyline class="st10" points="184.4,250.3 105.6,304.6 156.2,222.7 			"/>
		</g>
		<g>
			<polyline class="st11" points="158.1,226.7 119.9,289.6 180.3,248.5 			"/>
		</g>
		<g>
			<polyline class="st10" points="160.6,230.9 136.4,272.6 176.1,246.1 			"/>
		</g>
		<g>
			<polyline class="st12" points="172.3,243.3 146.1,262.9 163.1,234.3 			"/>
		</g>
		<g>
			<polyline class="st13" points="223.4,248.8 206.7,343 183.9,249.6 			"/>
		</g>
		<g>
			<polyline class="st14" points="188.2,251 206.1,322.3 219.2,250.4 			"/>
		</g>
		<g>
			<polyline class="st13" points="192.9,252.1 205.6,298.7 214.6,251.7 			"/>
		</g>
		<g>
			<polyline class="st14" points="209.9,252.6 205.5,284.9 197,252.7 			"/>
		</g>
		<g>
			<polyline class="st10" points="252.4,219.9 305.8,299.3 224.5,247.9 			"/>
		</g>
		<g>
			<polyline class="st11" points="228.5,245.9 290.9,284.8 250.5,224 			"/>
		</g>
		<g>
			<polyline class="st10" points="232.7,243.5 274.2,268.2 248,228.1 			"/>
		</g>
		<g>
			<polyline class="st12" points="245.3,232 264.5,258.3 236.1,241 			"/>
		</g>
		<g>
			<polyline class="st13" points="251.7,180.4 345.9,197 252.5,219.9 			"/>
		</g>
		<g>
			<polyline class="st14" points="253.9,215.7 325.2,197.6 253.3,184.6 			"/>
		</g>
		<g>
			<polyline class="st13" points="255,210.9 301.6,198.2 254.6,189.2 			"/>
		</g>
		<g>
			<polyline class="st14" points="255.4,193.9 287.8,198.8 255.6,206.8 			"/>
		</g>
		<g>
			<circle class="st15" cx="203.5" cy="200.5" r="52.5"/>
			<path class="st2" d="M203.3,147.6c-29.2,0-52.9,23.7-52.9,52.9c0,29.2,23.7,52.9,52.9,52.9c29.2,0,52.9-23.8,52.9-52.9
				C256.3,171.4,232.5,147.6,203.3,147.6z M203.3,252.5c-28.6,0-51.9-23.3-51.9-51.9c0-28.6,23.3-51.9,51.9-51.9
				c28.6,0,51.9,23.3,51.9,51.9C255.3,229.2,232,252.5,203.3,252.5z"/>
		</g>
		<circle class="st16" cx="203.6" cy="200.3" r="40.9"/>
		<g class="st17">
			<circle class="st18" cx="203.9" cy="200" r="34"/>
			<path class="st19" d="M203.9,165.5c-19.2,0-34.8,15.6-34.8,34.8c0,19.2,15.6,34.8,34.8,34.8c19.2,0,34.8-15.6,34.8-34.8
				C238.7,181.1,223.1,165.5,203.9,165.5z M203.9,234c-18.6,0-33.7-15.1-33.7-33.7c0-18.6,15.1-33.7,33.7-33.7
				c18.6,0,33.7,15.1,33.7,33.7C237.7,218.9,222.5,234,203.9,234z"/>
		</g>
		<g class="st20">
			<circle class="st21" cx="203.7" cy="200" r="11"/>
			<path class="st22" d="M203.7,188.5c-6.3,0-11.4,5.1-11.4,11.4c0,6.3,5.1,11.4,11.4,11.4c6.3,0,11.4-5.1,11.4-11.4
				C215.1,193.6,210,188.5,203.7,188.5z M203.7,210.8c-6,0-10.9-4.9-10.9-10.9c0-6,4.9-10.9,10.9-10.9c6,0,10.9,4.9,10.9,10.9
				C214.6,205.9,209.7,210.8,203.7,210.8z"/>
		</g>
		<path class="st13" d="M213.4,137.5c-0.4-0.2-0.6-0.5-0.6-0.8c0-0.6,0.4-1.1,1.3-1.7c0.8-0.6,2.1-1.4,3.7-2.3
			c1.6-0.8,2.8-1.5,3.7-2.1c0.9-0.6,1.6-1.2,2.2-1.8c3.8-3.9,6.8-7.6,9-11.3c2.2-3.7,3.4-7.4,3.4-11.2c0-8.8-1.8-15.8-5.4-20.8
			c-3.6-5-8.5-7.5-14.8-7.6c-3.2,0-6,0.5-8.5,1.6c-2.5,1.1-4.4,2.3-5.7,3.8v47.8l2.5,1.5c0.9,0.5,1.4,1.1,1.4,1.7
			c0,0.4-0.2,0.9-0.7,1.4l-2.5,2.9c-0.3,0.3-0.7,0.5-1.1,0.5c-0.3,0-0.7-0.2-1.3-0.5l-7.6-3.9c-0.5-0.3-0.8-0.6-0.8-0.8
			c0-0.2,0.1-0.4,0.4-0.6l3-2.4V84.8c0-1.5-0.1-2.8-0.4-3.8c-0.3-1-0.7-1.8-1.2-2.3c-0.5-0.5-1-0.9-1.6-1c-0.6-0.2-1.2-0.3-1.8-0.3
			c-1.9,0-3.5,0.2-4.8,0.5c-1.3,0.3-2.3,0.7-3.1,1.2c-0.8,0.5-1.4,1.1-1.8,1.6c-0.4,0.6-0.9,1.3-1.4,2.1c0,0.1,0,0.1-0.1,0.2v48.2
			l2.5,1.5c0.9,0.5,1.4,1.1,1.4,1.7c0,0.4-0.2,0.9-0.7,1.4l-2.5,2.9c-0.3,0.3-0.7,0.5-1.1,0.5c-0.3,0-0.7-0.2-1.3-0.5l-7.6-3.9
			c-0.5-0.3-0.8-0.6-0.8-0.8c0-0.2,0.1-0.4,0.4-0.6l3-2.4V80.4l-4.1-2.5c-0.4-0.3-0.6-0.7-0.6-1.2c0-0.2,0.2-0.5,0.5-0.8l4.2-3.4
			c0.4-0.4,0.7-0.5,1-0.5c0.7,0,1.3,0.2,2,0.7l2.1,1.2c1,0.6,1.5,1.4,1.5,2.4v2.5c0.9-1.4,2.6-2.7,4.9-3.9c2.4-1.2,5.1-1.9,8.3-1.9
			c3,0,5.3,0.5,6.7,1.6c1.4,1.1,2.3,3,2.6,5.8c2.5-2,5.3-3.6,8.3-5c3-1.4,6-2.1,9-2.1c7.6,0,13.5,2.5,17.9,7.4
			c4.4,4.9,6.6,11.9,6.6,21c0,3.4-0.4,6.4-1.2,9.1c-0.8,2.7-1.9,5.1-3.2,7.1c-1.4,2.1-2.9,3.9-4.6,5.6c-1.7,1.6-3.8,3.4-6.2,5.3
			l-0.1,0.1c-0.7,0.5-1.4,1.1-2.2,1.7c-0.7,0.6-1.2,1.1-1.3,1.5c1.5-0.4,2.9-0.6,4.2-0.6c0.8,0,1.8,0.3,3,0.9c1.2,0.7,2.3,1,3.2,1
			c0.5,0,1.3-0.3,2.6-1c1.2-0.7,2.1-1,2.5-1c0.3,0,0.6,0.1,0.9,0.4c0.3,0.3,0.4,0.6,0.4,0.8c0,0.6-0.3,1.3-1,2.1
			c-0.7,0.8-1.6,1.5-2.7,2.2c-1.1,0.7-2.2,1.2-3.3,1.7c-1.1,0.4-2.1,0.7-3,0.7c-1.4,0-3.7-0.4-6.7-1.2c-2.6-0.7-4.5-1.1-5.6-1.1
			c-0.6,0-1,0-1.3,0.1c-0.3,0.1-0.6,0.2-1,0.3c-0.7,0.3-1.3,0.4-1.9,0.5C214.2,137.8,213.8,137.7,213.4,137.5z"/>
	</g>
</g>
</svg>
